<svg xmlns="http://www.w3.org/2000/svg" enable-background="new 0 0 3800 3000" viewBox="0 0 3800 3000" id="say-hello-to-new-people"><path fill="#d1def2" d="M3514.56 2306.57c-13.47-11.02-31.16-15.13-48.25-18.45-119.25-23.17-241.62-23.24-363.1-23.23-918.74.09-1837.48.19-2756.22.28l38.7 15.14c-49.34 6.18-100.52 12.99-142.44 39.74s-71.64 79.58-55.65 126.67c7.46 21.99 23.74 39.99 41.98 54.36 120.72 95.14 297.11 38.49 448.24 66.46 93.92 17.39 177.87 68.14 267.71 100.58 130.59 47.15 275.16 54.81 410 21.73 78.6-19.29 153.49-51.91 232.3-70.32 99.8-23.31 203.38-23.29 305.87-23.14l515.68.72c94.17.13 188.54.27 282.19 10.2 157.84 16.72 314.25 61.19 472.57 49.79 158.32-11.39 327.1-98.21 368.63-251.41 9.3-34.33 9.33-76.6-18.21-99.12z"></path><path fill="#e6ebf4" d="m3531.14 2414.96-3056.32-2.51s-535.49-535.49-150.14-1000.91c385.35-465.42 538.51 287.39 635.14-418.8 115.46-843.78 1474.4-923.72 1511.2-261.88 98.8 1776.29 1650.66 2.57 1060.12 1684.1z"></path><path fill="#5ca88d" d="M352.2 2203.57h8.75l-1.38 59h-7.37z"></path><path fill="#7ac094" d="M434.33 2173.22c3.3-2.87 93.31-84.83 82.71-187.68-10.6-102.85-96.49-128.3-72.1-248.12s0-202.53-74.22-203.58c-74.23-1.06-108.15 71.04-80.59 199.34 27.57 128.3-90.54 178.48-84.83 272.51 6.59 108.38 92.25 286.29 229.03 167.53z"></path><path fill="#f2faff" d="M319.31 1549.87c1.28 5.71 4.64 11.35 10.14 13.81 5.07 2.27 10.9 1.81 16.23.87 9.87-1.73 19.84-5.43 29.99-4.1 5.1.67 9.96 2.91 14.53 5.17 5.03 2.49 9.8 5.49 14.25 8.91 8.52 6.55 15.91 14.73 21 24.23 5.8 10.83 7.81 22.77 8.16 34.94.39 14.05-.91 28.12 1.63 42.03 1.69 9.26 4.55 19.41 11.03 26.52 1.25 1.37 2.64 2.47 4.09 3.43 14.09-102.45-12.18-170.89-79.65-171.85-20.37-.29-37.64 5.01-51.5 15.4.05.22.05.42.1.64z" opacity=".2"></path><path fill="#202234" d="M373.87 1963.11c-10.31-18.99-10.45-42.57-4.78-62.97 3.04-10.93 7.69-21.38 13.03-31.37 2.16-4.03 4.82-7.85 6.78-11.98 1.42-2.98 1.14-5.59-.01-8.63-1.99-5.26-4.81-10.27-7.04-15.44-2.24-5.21-4.4-10.47-6.23-15.84-3.83-11.18-5.37-22.49-6.27-34.22-.88-11.58-.46-23.56 3.24-34.66 3.3-9.91 10.44-17.91 14.04-27.61-5.9-3.61-11.03-8.26-15.27-13.73-4.89-6.32-8.69-13.35-11.68-20.78-.03 16.41-.03 32.82-.07 49.23-.17 65.4-.44 130.8-.6 196.2-.14 58.28-.13 116.56-.13 174.84 1.21-4.19 2.5-8.36 3.97-12.47 13.12-36.94 35-69.74 56.21-102.44-19.03.72-36.15-11.48-45.19-28.13z" opacity=".15"></path><path fill="#202234" d="M384.8 2204.79c-10.41.11-20.93-1.64-30.27-6.39-9.86-5.02-17.61-13.29-23.06-22.83-3.36-5.88-5.36-11.71-6.5-18.37-1.23-7.16-2.51-13.91-7.22-19.69-8.2-10.06-22.2-11.46-33.42-16.54-10.52-4.76-18.59-13.81-24.83-23.33-6.26-9.55-10.69-20.29-13.73-31.27-6.43-23.26-7.13-48.11-4.15-71.97 2.75-22.07 8.57-43.94 19.52-63.42 13.05-23.21 30.2-43.93 42.41-67.62 5.99-11.62 10.45-24 12.4-36.96 2.32-15.44.87-31-2.65-46.14-3.89-16.71-10.07-32.75-16.42-48.65-5.93-14.82-11-29.78-14.39-45.37 1.55 14.69 4.07 30.33 7.64 46.94 27.57 128.3-90.54 178.48-84.83 272.51 5.75 94.66 71.83 242.33 179.59 199.1h-.09z" opacity=".15"></path><path fill="#b8debf" d="M453.7 1962.77a1.11 1.11 0 0 0-1.58 0l-94.04 94.03v-159.89l52.4-55.35c.42-.44.41-1.15-.04-1.58a1.12 1.12 0 0 0-1.58.04l-50.78 53.63v-143.86l38.07-38.64c.43-.44.43-1.14-.01-1.58a1.12 1.12 0 0 0-1.58.01l-36.48 37.03V1622.9a1.116 1.116 0 1 0-2.23 0v172.54l-28.96-24.68a1.12 1.12 0 0 0-1.57.13c-.4.47-.34 1.17.13 1.57l30.41 25.91v162.49l-57.38-57.38c-.43-.43-1.14-.43-1.58 0-.43.44-.43 1.14 0 1.58l58.96 58.95v245.26c0 .62.5 1.11 1.12 1.11.61 0 1.11-.5 1.11-1.11v-149.33l95.61-95.61c.44-.42.44-1.12 0-1.56z"></path><path fill="#5ca88d" d="M2558.95 2265.1h8.76l-1.38 59h-7.38z"></path><path fill="#7ac094" d="M2641.09 2234.75c3.3-2.87 93.31-84.83 82.71-187.68-10.6-102.85-96.49-128.3-72.1-248.12s0-202.53-74.22-203.58c-74.23-1.06-108.15 71.04-80.59 199.34 27.57 128.3-90.54 178.48-84.83 272.51 6.58 108.38 92.25 286.28 229.03 167.53z"></path><path fill="#f2faff" d="M2526.07 1611.4c1.28 5.71 4.64 11.35 10.14 13.81 5.07 2.27 10.9 1.81 16.23.87 9.87-1.73 19.84-5.43 29.99-4.1 5.1.67 9.96 2.91 14.53 5.17 5.03 2.49 9.8 5.49 14.25 8.91 8.52 6.55 15.91 14.73 21 24.23 5.8 10.83 7.81 22.77 8.16 34.94.39 14.05-.91 28.12 1.63 42.03 1.69 9.26 4.55 19.41 11.03 26.52 1.25 1.37 2.64 2.47 4.09 3.43 14.09-102.45-12.18-170.89-79.65-171.85-20.37-.29-37.64 5.01-51.5 15.4.04.22.05.42.1.64z" opacity=".2"></path><path fill="#202234" d="M2580.62 2024.64c-10.31-18.99-10.45-42.57-4.78-62.97 3.04-10.93 7.69-21.38 13.03-31.37 2.16-4.03 4.82-7.85 6.78-11.98 1.42-2.98 1.14-5.59-.01-8.63-1.99-5.26-4.81-10.27-7.04-15.44-2.24-5.21-4.4-10.47-6.23-15.84-3.83-11.18-5.37-22.49-6.27-34.22-.88-11.58-.46-23.56 3.24-34.66 3.3-9.91 10.44-17.91 14.04-27.61-5.9-3.61-11.03-8.26-15.27-13.73-4.89-6.32-8.69-13.35-11.68-20.78-.03 16.41-.03 32.82-.07 49.23-.17 65.4-.44 130.8-.6 196.2-.14 58.28-.13 116.56-.13 174.84 1.21-4.19 2.5-8.36 3.97-12.47 13.12-36.94 35-69.74 56.21-102.44-19.02.72-36.14-11.48-45.19-28.13z" opacity=".15"></path><path fill="#202234" d="M2591.56 2266.32c-10.41.11-20.93-1.64-30.27-6.39-9.86-5.02-17.61-13.29-23.06-22.83-3.36-5.88-5.36-11.71-6.5-18.37-1.23-7.16-2.51-13.91-7.22-19.69-8.2-10.06-22.2-11.46-33.42-16.54-10.52-4.76-18.59-13.81-24.83-23.33-6.26-9.55-10.69-20.29-13.73-31.27-6.43-23.26-7.13-48.11-4.15-71.97 2.75-22.07 8.57-43.94 19.52-63.42 13.05-23.21 30.2-43.93 42.41-67.62 5.99-11.62 10.45-24 12.4-36.96 2.32-15.44.87-31-2.65-46.14-3.89-16.71-10.07-32.75-16.43-48.65-5.93-14.82-11-29.78-14.39-45.37 1.55 14.69 4.07 30.33 7.64 46.94 27.57 128.3-90.54 178.48-84.83 272.51 5.75 94.66 71.83 242.33 179.59 199.1-.02-.01-.05 0-.08 0z" opacity=".15"></path><path fill="#b8debf" d="M2660.46 2024.3a1.11 1.11 0 0 0-1.58 0l-94.04 94.03v-159.89l52.4-55.35c.42-.44.41-1.15-.04-1.58a1.12 1.12 0 0 0-1.58.04l-50.78 53.63v-143.86l38.07-38.64c.43-.44.43-1.14-.01-1.58a1.12 1.12 0 0 0-1.58.01l-36.48 37.03v-123.73a1.11 1.11 0 1 0-2.22 0v172.54l-28.96-24.68a1.12 1.12 0 0 0-1.57.13c-.4.47-.34 1.17.13 1.57l30.41 25.91v162.49l-57.38-57.38c-.43-.43-1.14-.43-1.58 0-.43.44-.43 1.14 0 1.58l58.96 58.95v245.26c0 .62.5 1.11 1.11 1.11.61 0 1.11-.5 1.11-1.11v-149.33l95.61-95.61c.43-.4.43-1.11 0-1.54z"></path><path fill="#5ca88d" d="M2387.49 2234.12h-12.44l1.97 83.78h10.47z"></path><path fill="#7ac094" d="M2270.85 2191.01c-4.69-4.07-132.51-120.46-117.45-266.52 15.06-146.06 137.02-182.19 102.39-352.34-34.63-170.15 0-287.6 105.4-289.1 105.4-1.51 153.59 100.88 114.44 283.08-39.15 182.19 128.57 253.45 120.46 386.97-9.35 153.92-131 406.56-325.24 237.91z"></path><path fill="#f2faff" d="M2434.19 1305.82c-1.82 8.1-6.59 16.11-14.4 19.61-7.2 3.22-15.49 2.57-23.05 1.24-14.01-2.46-28.18-7.72-42.59-5.83-7.25.95-14.14 4.14-20.63 7.35-7.15 3.53-13.91 7.8-20.24 12.65-12.1 9.3-22.59 20.91-29.82 34.41-8.24 15.37-11.09 32.33-11.58 49.62-.56 19.95 1.29 39.93-2.32 59.69-2.39 13.15-6.46 27.56-15.67 37.67-1.77 1.94-3.74 3.5-5.81 4.87-20.02-145.48 17.3-242.68 113.11-244.04 28.93-.42 53.46 7.12 73.13 21.87-.06.3-.07.58-.13.89z" opacity=".2"></path><path fill="#202234" d="M2356.71 1892.65c14.64-26.97 14.83-60.46 6.78-89.42-4.32-15.52-10.92-30.36-18.51-44.55-3.06-5.72-6.84-11.14-9.63-17.01-2.01-4.23-1.61-7.94.02-12.25 2.82-7.46 6.83-14.58 9.99-21.93 3.18-7.4 6.24-14.87 8.85-22.49 5.43-15.87 7.63-31.93 8.9-48.6 1.25-16.44.65-33.45-4.6-49.22-4.68-14.07-14.82-25.44-19.94-39.2 8.37-5.12 15.66-11.73 21.68-19.5 6.95-8.97 12.34-18.95 16.59-29.51.04 23.31.04 46.61.1 69.91.24 92.87.62 185.75.85 278.62.2 82.76.18 165.52.18 248.28-1.72-5.95-3.56-11.87-5.63-17.71-18.63-52.46-49.71-99.03-79.81-145.47 27.03 1.02 51.34-16.3 64.18-39.95z" opacity=".15"></path><path fill="#202234" d="M2341.18 2235.85c14.79.16 29.72-2.32 42.99-9.07 14.01-7.13 25-18.87 32.75-32.42 4.78-8.35 7.61-16.63 9.22-26.09 1.75-10.17 3.56-19.76 10.25-27.96 11.64-14.29 31.53-16.27 47.46-23.49 14.94-6.76 26.4-19.61 35.26-33.13 8.9-13.57 15.18-28.81 19.49-44.41 9.14-33.03 10.12-68.33 5.9-102.2-3.91-31.34-12.17-62.4-27.72-90.06-18.53-32.96-42.89-62.38-60.23-96.03-8.51-16.5-14.84-34.08-17.6-52.49-3.29-21.93-1.24-44.03 3.76-65.53 5.52-23.73 14.29-46.51 23.32-69.08 8.42-21.04 15.62-42.29 20.43-64.43-2.21 20.86-5.78 43.07-10.85 66.65-39.15 182.19 128.57 253.45 120.46 386.97-8.17 134.42-102 344.13-255.03 282.74.06.03.1.03.14.03z" opacity=".15"></path><path fill="#b8debf" d="M2243.35 1892.17c.62-.62 1.62-.62 2.24 0l133.54 133.53v-227.05l-74.41-78.6c-.6-.63-.58-1.64.06-2.24.64-.6 1.64-.57 2.24.06l72.11 76.16v-204.29l-54.06-54.88c-.61-.62-.61-1.62.02-2.24.63-.61 1.63-.61 2.24.02l51.81 52.59v-175.7a1.58 1.58 0 1 1 3.16 0v245.02l41.12-35.04c.67-.56 1.67-.49 2.23.18.57.67.49 1.67-.18 2.23l-43.18 36.79v230.75l81.48-81.48c.62-.62 1.62-.62 2.24 0 .62.62.62 1.62 0 2.24l-83.72 83.72v348.3c0 .88-.71 1.58-1.58 1.58-.87 0-1.58-.71-1.58-1.58v-212.06l-135.77-135.77c-.63-.62-.63-1.63-.01-2.24z"></path><path fill="#5ca88d" d="M568.35 2175.99h12.94l-2.04 87.16h-10.9z"></path><path fill="#7ac094" d="M689.7 2131.15c4.88-4.23 137.85-125.32 122.18-277.27-15.66-151.95-142.55-189.54-106.52-366.56 36.03-177.01 0-299.2-109.65-300.76-109.65-1.57-159.78 104.95-119.05 294.5 40.73 189.54-133.76 263.68-125.32 402.59 9.73 160.11 136.28 422.94 338.36 247.5z"></path><path fill="#f2faff" d="M519.77 1210.24c1.9 8.43 6.86 16.77 14.98 20.4 7.49 3.35 16.1 2.67 23.98 1.29 14.58-2.56 29.32-8.03 44.31-6.06 7.54.99 14.71 4.3 21.47 7.65 7.44 3.68 14.47 8.11 21.05 13.17 12.59 9.68 23.5 21.76 31.02 35.8 8.57 15.99 11.54 33.63 12.05 51.61.59 20.75-1.34 41.54 2.41 62.1 2.49 13.68 6.72 28.67 16.3 39.19 1.84 2.02 3.9 3.64 6.04 5.07 20.82-151.35-18-252.47-117.68-253.89-30.09-.43-55.61 7.41-76.08 22.75.07.31.08.6.15.92z" opacity=".2"></path><path fill="#202234" d="M600.37 1820.74c-15.24-28.05-15.43-62.89-7.06-93.03 4.49-16.15 11.36-31.59 19.25-46.34 3.18-5.96 7.12-11.6 10.02-17.7 2.09-4.4 1.68-8.26-.02-12.74-2.94-7.77-7.11-15.17-10.4-22.81-3.31-7.7-6.49-15.47-9.21-23.4-5.65-16.51-7.93-33.22-9.25-50.56-1.3-17.11-.68-34.81 4.78-51.21 4.87-14.64 15.42-26.46 20.74-40.78-8.71-5.33-16.29-12.2-22.55-20.29-7.23-9.33-12.84-19.72-17.27-30.71-.04 24.24-.04 48.49-.11 72.73-.25 96.62-.64 193.24-.88 289.86-.21 86.1-.19 172.19-.19 258.29 1.79-6.19 3.7-12.35 5.86-18.42 19.39-54.58 51.71-103.03 83.04-151.33-28.1 1.07-53.39-16.95-66.75-41.56z" opacity=".15"></path><path fill="#202234" d="M616.52 2177.79c-15.38.17-30.92-2.41-44.72-9.44-14.57-7.41-26.01-19.64-34.07-33.73-4.97-8.69-7.91-17.3-9.6-27.14-1.81-10.58-3.71-20.55-10.66-29.08-12.11-14.87-32.8-16.93-49.37-24.44-15.54-7.04-27.46-20.4-36.68-34.47-9.25-14.11-15.79-29.98-20.28-46.2-9.51-34.36-10.53-71.08-6.14-106.32 4.07-32.61 12.66-64.91 28.83-93.69 19.27-34.29 44.61-64.9 62.66-99.9 8.85-17.16 15.44-35.46 18.31-54.6 3.43-22.81 1.29-45.8-3.91-68.17-5.74-24.69-14.87-48.39-24.27-71.88-8.75-21.89-16.25-43.99-21.25-67.02 2.3 21.7 6.02 44.81 11.29 69.34 40.73 189.54-133.76 263.68-125.32 402.59 8.5 139.84 106.11 358.01 265.32 294.14-.05.01-.09.01-.14.01z" opacity=".15"></path><path fill="#b8debf" d="M718.31 1820.24c-.65-.65-1.69-.65-2.33 0l-138.92 138.92v-236.21l77.41-81.76a1.646 1.646 0 1 0-2.39-2.26l-75.02 79.23v-212.54l56.24-57.09c.64-.65.63-1.69-.02-2.33-.65-.64-1.69-.64-2.33.02l-53.9 54.71v-182.79c0-.91-.73-1.65-1.65-1.65-.91 0-1.65.74-1.65 1.65v254.9l-42.78-36.45c-.69-.59-1.73-.51-2.32.19-.59.69-.51 1.73.19 2.32l44.92 38.28v240.05L489 1732.67c-.64-.64-1.69-.64-2.33 0-.64.64-.64 1.68 0 2.33l87.1 87.09V2184.43c0 .91.74 1.65 1.65 1.65.91 0 1.65-.74 1.65-1.65v-220.61l141.25-141.25c.63-.64.63-1.69-.01-2.33z"></path><path fill="#394ca4" d="M315.88 2310.63s26.28-190.77-26.05-171.94c-52.32 18.83-28.3 95.28 26.05 171.94z"></path><path fill="#100959" d="M319.34 2308.78s-107-188.17-180.82-123.47c-73.82 64.71 180.82 123.47 180.82 123.47z"></path><path fill="#f2faff" d="M142.62 2187.42c2.14 5.88 5.65 10.86 11.99 12.4 7.92 1.92 16.55-.41 24.51-.86 9.08-.51 17.79.84 26.02 4.79 7.95 3.82 14.76 9.6 21.49 15.22 6.74 5.63 13.61 11.76 21.49 15.75 7.48 3.78 16.35 5.4 24.57 6.68h.02c-36.94-45.39-89.18-91.4-131.38-58.39.34 1.49.76 2.96 1.29 4.41z" opacity=".5"></path><path fill="#4094f2" d="M168.77 2412.45h923.76l-13.25-46.18-31.16-109.38c-22.08-77.21-98.78-125.53-178.01-112.03l-39.99 6.94c-3.03.51-5.93.76-8.83.76-17.66 0-34.44-8.83-44.41-23.85-68.63-102.94-223.8-90.2-274.77 22.59l-6.81 15.14c-12.02 26.71-43.39 38.65-70.12 26.68l-39.88-17.85c-23.34-10.47-49.33-2.65-63.71 15.77-5.3 6.68-9.09 14.76-10.6 23.84l-5.93 34.57c-1.52 8.58-4.8 16.15-9.46 22.46-.88 1.14-1.77 2.27-2.65 3.28a53.407 53.407 0 0 1-31.03 17.66c-3.02.63-6.31.88-9.46.88-10.01 0-20.15-2.74-29.36-8.89-20.77-13.86-48.61-10.41-66.27 7.25l-26.8 26.8c-34.53 34.52-10.08 93.56 38.74 93.56z"></path><path fill="#f2faff" d="M132.61 2338.72c5.41-8.05 8.67-17.42 14.49-25.19 12.02-16.06 34.05-19.29 52.79-16.15 12.6 2.12 24.49 6.63 37.46 5.47 10.12-.91 20.19-2.5 30.02-5.08 19.3-5.08 38.86-14.53 49.69-32.06 10.78-17.43 5.64-40.52 18.38-57.06 13.7-17.79 37.3-16.12 56.31-9.16 10.66 3.9 20.11 10.44 30.8 14.11 12.55 4.31 26.02 4.85 38.93 1.9 6.68-1.53 13.15-3.9 19.29-6.92 3.81-1.88 7.28-3.91 9.97-7.26 4.42-5.51 6.08-12.8 5.82-19.75-.15-4.23-1.09-8.46-2.7-12.34-12.9 24.71-42.93 35.42-68.69 23.89l-39.88-17.85c-23.34-10.47-49.33-2.65-63.71 15.77-5.3 6.68-9.09 14.76-10.6 23.84l-5.93 34.57c-1.52 8.58-4.8 16.15-9.46 22.46-.88 1.14-1.77 2.27-2.65 3.28a53.46 53.46 0 0 1-31.03 17.66c-3.02.63-6.31.88-9.46.88-10.01 0-20.15-2.74-29.36-8.89-20.77-13.86-48.61-10.41-66.27 7.25l-26.8 26.8c-9.74 9.74-14.78 21.43-15.91 33.2 7.7-1.7 13.95-6.58 18.5-13.37z" opacity=".2"></path><path fill="#f2faff" d="M250.3 2412.45h842.23l-13.25-46.18c-41.63-37.34-99.16-55.63-157.7-45.54l-31.16 5.3-16.78 2.78c-3.66.63-7.31.88-10.85.88-7.82 0-15.52-1.39-22.71-4.16-12.11-4.67-22.71-12.87-30.28-24.22-10.6-16.02-23.09-29.65-36.71-40.88-5.3-4.54-10.72-8.58-16.4-12.24-30.66-20.31-65.85-30.4-101.18-30.78-20.69-.38-41.25 2.65-60.93 9.08-47.81 15.14-90.2 49.58-113.79 101.93l-8.2 17.92c-14.51 32.17-52.23 46.43-84.27 32.04l-24.22-10.85-23.34-10.47c-10.6-4.79-21.7-6.3-32.3-5.3-27.51 2.65-51.73 23.09-56.77 52.73l-1.39 7.96z" opacity=".25"></path><path fill="#100959" d="M364.51 2242.18c0 9.07 7.35 16.42 16.42 16.42 9.07 0 16.42-7.35 16.42-16.42 0-9.07-7.35-16.42-16.42-16.42-9.07 0-16.42 7.36-16.42 16.42z"></path><path fill="#202234" d="M368.31 2246.07c0 9.07 7.35 16.42 16.42 16.42 9.07 0 16.42-7.35 16.42-16.42 0-9.07-7.35-16.42-16.42-16.42-9.07 0-16.42 7.35-16.42 16.42z" opacity=".15"></path><path fill="#394ca4" d="M602.63 2367.6c0 9.07 7.35 16.42 16.42 16.42 9.07 0 16.42-7.35 16.42-16.42 0-9.07-7.35-16.42-16.42-16.42-9.07 0-16.42 7.35-16.42 16.42z"></path><path fill="#202234" d="M539.62 2158.88c0 17.48 14.17 31.64 31.64 31.64 17.48 0 31.65-14.17 31.65-31.64s-14.17-31.65-31.65-31.65c-17.47 0-31.64 14.17-31.64 31.65z" opacity=".15"></path><path fill="#394ca4" d="M543.59 2147.63c0 17.48 14.17 31.64 31.64 31.64 17.48 0 31.65-14.17 31.65-31.64 0-17.48-14.17-31.65-31.65-31.65-17.47.01-31.64 14.17-31.64 31.65z"></path><path fill="#100959" d="M365.11 2403.81s74.05-93.37 40.25-99.81c-33.81-6.44-45.08 41.85-40.25 99.81z"></path><path fill="#f2faff" d="M367.49 2346.41c3.45-.82 5.61-3.23 7.09-6.35 2.97-6.26 2.76-13.6 6.17-19.68 1.72-3.06 4.4-5.4 7.57-6.86 3.13-1.44 6.63-2.16 9.61-3.93 2.88-1.71 3.41-3.78 1.18-6.16-17.69.24-28.13 17.44-32.55 43.14.3-.06.62-.09.93-.16z" opacity=".5"></path><path fill="#394ca4" d="M365.11 2403.81s-46.68-125.56-98.2-93.37c-51.51 32.19 98.2 93.37 98.2 93.37z"></path><path fill="#f2faff" d="M269.01 2309.32c.54 1.2 1.74 2.31 2.67 2.68 2.06.84 4.71.51 6.88.47 4.78-.09 9.71-.43 14.43.52 5.08 1.02 9.94 3.96 14.12 6.92 7.69 5.43 12.65 13.89 20.55 18.95 1.28.82 3.09 1.72 5.14 2.5-17.32-24.97-39.97-45-63.79-32.04z" opacity=".2"></path><path fill="#394ca4" d="M365.11 2403.81s172.25-20.93 128.78-48.29c-43.46-27.37-128.78 48.29-128.78 48.29z"></path><path fill="#f2faff" d="M422.63 2365.58c5.07-.93 8.8-3.92 13.12-6.49 4.08-2.43 8.51-4.4 13.18-5.38 6.61-1.39 13.25.3 19.89-.61 2.32-.32 5.04-1.11 5.91-3.41-17.21-1.06-37.1 6.43-55.19 16.18 1.03-.04 2.06-.1 3.09-.29z" opacity=".2"></path><path fill="#394ca4" d="M1816.92 2310.63s26.28-190.77-26.05-171.94c-52.32 18.83-28.3 95.28 26.05 171.94z"></path><path fill="#100959" d="M1820.38 2308.78s-107-188.17-180.82-123.47c-73.82 64.71 180.82 123.47 180.82 123.47z"></path><path fill="#f2faff" d="M1643.66 2187.42c2.14 5.88 5.65 10.86 11.99 12.4 7.92 1.92 16.55-.41 24.51-.86 9.08-.51 17.79.84 26.02 4.79 7.95 3.82 14.76 9.6 21.48 15.22 6.74 5.63 13.61 11.76 21.49 15.75 7.48 3.78 16.35 5.4 24.57 6.68h.02c-36.95-45.39-89.18-91.4-131.38-58.39.35 1.49.78 2.96 1.3 4.41z" opacity=".5"></path><path fill="#4094f2" d="M1669.81 2412.45h923.76l-13.25-46.18-31.16-109.38c-22.08-77.21-98.78-125.53-178-112.03l-39.99 6.94c-3.03.51-5.93.76-8.83.76-17.66 0-34.44-8.83-44.41-23.85-68.63-102.94-223.8-90.2-274.77 22.59l-6.81 15.14c-12.02 26.71-43.39 38.65-70.13 26.68l-39.88-17.85c-23.34-10.47-49.33-2.65-63.71 15.77-5.3 6.68-9.09 14.76-10.6 23.84l-5.93 34.57c-1.52 8.58-4.79 16.15-9.46 22.46-.88 1.14-1.77 2.27-2.65 3.28a53.402 53.402 0 0 1-31.04 17.66c-3.02.63-6.31.88-9.46.88-10.01 0-20.15-2.74-29.36-8.89-20.77-13.86-48.61-10.41-66.27 7.25l-26.8 26.8c-34.52 34.52-10.07 93.56 38.75 93.56z"></path><path fill="#f2faff" d="M1633.66 2338.72c5.41-8.05 8.67-17.42 14.49-25.19 12.02-16.06 34.05-19.29 52.78-16.15 12.6 2.12 24.49 6.63 37.46 5.47 10.12-.91 20.19-2.5 30.02-5.08 19.3-5.08 38.86-14.53 49.69-32.06 10.78-17.43 5.64-40.52 18.38-57.06 13.7-17.79 37.3-16.12 56.31-9.16 10.66 3.9 20.11 10.44 30.8 14.11 12.55 4.31 26.02 4.85 38.93 1.9 6.68-1.53 13.15-3.9 19.29-6.92 3.81-1.88 7.28-3.91 9.97-7.26 4.42-5.51 6.08-12.8 5.82-19.75-.15-4.23-1.09-8.46-2.7-12.34-12.9 24.71-42.93 35.42-68.69 23.89l-39.88-17.85c-23.34-10.47-49.33-2.65-63.71 15.77-5.3 6.68-9.09 14.76-10.6 23.84l-5.93 34.57c-1.52 8.58-4.79 16.15-9.46 22.46-.88 1.14-1.77 2.27-2.65 3.28a53.456 53.456 0 0 1-31.04 17.66c-3.02.63-6.31.88-9.46.88-10.01 0-20.15-2.74-29.36-8.89-20.77-13.86-48.61-10.41-66.27 7.25l-26.8 26.8c-9.74 9.74-14.78 21.43-15.91 33.2 7.71-1.7 13.96-6.58 18.52-13.37z" opacity=".2"></path><path fill="#f2faff" d="M1751.34 2412.45h842.23l-13.25-46.18c-41.63-37.34-99.16-55.63-157.7-45.54l-31.16 5.3-16.78 2.78c-3.66.63-7.32.88-10.85.88-7.82 0-15.52-1.39-22.71-4.16-12.11-4.67-22.71-12.87-30.28-24.22-10.6-16.02-23.09-29.65-36.71-40.88-5.3-4.54-10.72-8.58-16.4-12.24-30.66-20.31-65.85-30.4-101.18-30.78-20.69-.38-41.25 2.65-60.93 9.08-47.81 15.14-90.2 49.58-113.79 101.93l-8.2 17.92c-14.51 32.17-52.23 46.43-84.27 32.04l-24.22-10.85-23.34-10.47c-10.6-4.79-21.7-6.3-32.3-5.3-27.51 2.65-51.72 23.09-56.77 52.73l-1.39 7.96z" opacity=".25"></path><path fill="#100959" d="M1865.55 2242.18c0 9.07 7.35 16.42 16.42 16.42 9.07 0 16.42-7.35 16.42-16.42 0-9.07-7.35-16.42-16.42-16.42-9.07 0-16.42 7.36-16.42 16.42z"></path><path fill="#202234" d="M1869.36 2246.07c0 9.07 7.35 16.42 16.42 16.42s16.42-7.35 16.42-16.42c0-9.07-7.35-16.42-16.42-16.42s-16.42 7.35-16.42 16.42z" opacity=".15"></path><path fill="#394ca4" d="M2103.67 2367.6c0 9.07 7.35 16.42 16.42 16.42 9.07 0 16.42-7.35 16.42-16.42 0-9.07-7.35-16.42-16.42-16.42-9.07 0-16.42 7.35-16.42 16.42z"></path><path fill="#202234" d="M2040.66 2158.88c0 17.48 14.17 31.64 31.64 31.64 17.48 0 31.65-14.17 31.65-31.64s-14.17-31.65-31.65-31.65c-17.47 0-31.64 14.17-31.64 31.65z" opacity=".15"></path><path fill="#394ca4" d="M2044.63 2147.63c0 17.48 14.17 31.64 31.65 31.64 17.48 0 31.65-14.17 31.65-31.64 0-17.48-14.17-31.65-31.65-31.65-17.48.01-31.65 14.17-31.65 31.65z"></path><path fill="#100959" d="M1866.15 2403.81s74.05-93.37 40.25-99.81c-33.81-6.44-45.08 41.85-40.25 99.81z"></path><path fill="#f2faff" d="M1868.53 2346.41c3.45-.82 5.61-3.23 7.09-6.35 2.97-6.26 2.75-13.6 6.17-19.68 1.72-3.06 4.4-5.4 7.57-6.86 3.13-1.44 6.63-2.16 9.61-3.93 2.88-1.71 3.41-3.78 1.18-6.16-17.69.24-28.13 17.44-32.55 43.14.31-.06.63-.09.93-.16z" opacity=".5"></path><path fill="#394ca4" d="M1866.15 2403.81s-46.68-125.56-98.2-93.37c-51.51 32.19 98.2 93.37 98.2 93.37z"></path><path fill="#f2faff" d="M1770.06 2309.32c.54 1.2 1.74 2.31 2.67 2.68 2.06.84 4.71.51 6.88.47 4.79-.09 9.71-.43 14.43.52 5.08 1.02 9.94 3.96 14.12 6.92 7.69 5.43 12.65 13.89 20.54 18.95 1.28.82 3.09 1.72 5.14 2.5-17.31-24.97-39.96-45-63.78-32.04z" opacity=".2"></path><path fill="#394ca4" d="M1866.15 2403.81s172.25-20.93 128.78-48.29c-43.46-27.37-128.78 48.29-128.78 48.29z"></path><path fill="#f2faff" d="M1923.67 2365.58c5.07-.93 8.8-3.92 13.12-6.49 4.08-2.43 8.51-4.4 13.18-5.38 6.61-1.39 13.25.3 19.89-.61 2.32-.32 5.04-1.11 5.91-3.41-17.2-1.06-37.1 6.43-55.19 16.18 1.03-.04 2.06-.1 3.09-.29z" opacity=".2"></path><path fill="#394ca4" d="M3377.64 2256.96s-40.13-291.31 39.77-262.56c79.9 28.76 43.23 145.5-39.77 262.56z"></path><path fill="#100959" d="M3372.36 2254.15s163.4-287.35 276.13-188.55c112.72 98.81-276.13 188.55-276.13 188.55z"></path><path fill="#f2faff" d="M3642.22 2068.82c-3.27 8.97-8.62 16.58-18.3 18.93-12.1 2.93-25.27-.63-37.43-1.31-13.87-.78-27.16 1.28-39.74 7.32-12.15 5.84-22.54 14.66-32.81 23.24-10.29 8.61-20.78 17.96-32.82 24.05-11.42 5.77-24.97 8.24-37.52 10.21h-.04c56.42-69.31 136.19-139.58 200.63-89.16-.52 2.25-1.17 4.5-1.97 6.72z" opacity=".5"></path><path fill="#4094f2" d="M3602.29 2412.45H2191.64l20.23-70.51 47.59-167.03c33.71-117.9 150.84-191.69 271.83-171.08l61.07 10.59c4.62.77 9.06 1.16 13.49 1.16 26.97 0 52.59-13.49 67.82-36.42 104.8-157.2 341.76-137.74 419.59 34.49l10.41 23.12c18.35 40.79 66.26 59.02 107.09 40.75l60.9-27.26c35.64-15.99 75.33-4.04 97.29 24.08 8.09 10.21 13.88 22.54 16.18 36.41l9.05 52.79c2.32 13.1 7.32 24.66 14.45 34.29 1.35 1.74 2.7 3.47 4.05 5.01a81.601 81.601 0 0 0 47.39 26.97c4.62.96 9.63 1.35 14.45 1.35 15.28 0 30.77-4.19 44.83-13.58 31.72-21.17 74.24-15.89 101.2 11.07l40.92 40.92c52.71 52.73 15.37 142.88-59.18 142.88z"></path><path fill="#f2faff" d="M3657.5 2299.87c-8.26-12.29-13.24-26.6-22.12-38.46-18.36-24.52-51.99-29.46-80.6-24.66-19.25 3.23-37.4 10.13-57.21 8.35-15.45-1.38-30.83-3.82-45.84-7.76-29.48-7.75-59.34-22.19-75.88-48.96-16.46-26.62-8.62-61.87-28.07-87.13-20.92-27.17-56.95-24.61-85.99-13.99-16.27 5.95-30.71 15.94-47.04 21.55-19.16 6.58-39.73 7.41-59.45 2.9-10.2-2.33-20.08-5.95-29.46-10.57-5.81-2.86-11.12-5.98-15.23-11.09-6.75-8.42-9.28-19.55-8.89-30.16.24-6.46 1.67-12.91 4.13-18.84 19.7 37.73 65.55 54.09 104.9 36.48l60.9-27.26c35.64-15.99 75.33-4.04 97.29 24.08 8.09 10.21 13.88 22.54 16.18 36.41l9.05 52.79c2.32 13.1 7.32 24.66 14.45 34.29 1.35 1.74 2.7 3.47 4.05 5.01a81.601 81.601 0 0 0 47.39 26.97c4.62.96 9.63 1.35 14.45 1.35 15.28 0 30.77-4.19 44.83-13.58 31.72-21.17 74.24-15.89 101.2 11.07l40.92 40.92c14.87 14.88 22.57 32.73 24.29 50.7-11.75-2.6-21.29-10.05-28.25-20.41z" opacity=".2"></path><path fill="#f2faff" d="M3477.79 2412.45H2191.64l20.23-70.51c63.58-57.03 151.42-84.96 240.81-69.54l47.59 8.09 25.62 4.24c5.58.96 11.17 1.35 16.57 1.35 11.94 0 23.7-2.12 34.68-6.36 18.49-7.12 34.68-19.66 46.23-36.99 16.18-24.46 35.26-45.27 56.06-62.42 8.09-6.93 16.37-13.1 25.04-18.69 46.82-31.01 100.56-46.42 154.51-47 31.59-.58 63 4.05 93.05 13.87 73.01 23.12 137.74 75.71 173.77 155.66l12.53 27.36c22.15 49.13 79.75 70.9 128.69 48.93l36.99-16.57 35.64-15.99c16.18-7.32 33.14-9.63 49.32-8.09 42 4.04 78.99 35.25 86.7 80.52l2.12 12.14z" opacity=".25"></path><path fill="#100959" d="M3303.38 2152.44c0 13.85-11.22 25.07-25.07 25.07s-25.07-11.23-25.07-25.07c0-13.85 11.23-25.08 25.07-25.08 13.84.01 25.07 11.23 25.07 25.08z"></path><path fill="#202234" d="M3297.57 2158.38c0 13.85-11.23 25.07-25.07 25.07-13.85 0-25.07-11.23-25.07-25.07 0-13.85 11.23-25.08 25.07-25.08s25.07 11.23 25.07 25.08z" opacity=".15"></path><path fill="#394ca4" d="M2939.75 2343.97c0 13.85-11.22 25.07-25.07 25.07s-25.08-11.23-25.08-25.07c0-13.85 11.23-25.08 25.08-25.08 13.85 0 25.07 11.23 25.07 25.08z"></path><path fill="#202234" d="M3035.97 2025.23c0 26.69-21.64 48.32-48.32 48.32-26.69 0-48.33-21.64-48.33-48.32s21.64-48.33 48.33-48.33c26.68 0 48.32 21.64 48.32 48.33z" opacity=".15"></path><path fill="#394ca4" d="M3029.91 2008.05c0 26.69-21.63 48.32-48.32 48.32s-48.33-21.63-48.33-48.32 21.64-48.33 48.33-48.33c26.68.01 48.32 21.64 48.32 48.33z"></path><path fill="#100959" d="M3302.46 2399.25s-113.08-142.58-61.46-152.41c51.63-9.83 68.83 63.92 61.46 152.41z"></path><path fill="#f2faff" d="M3298.83 2311.6c-5.27-1.25-8.56-4.94-10.83-9.7-4.54-9.56-4.21-20.77-9.42-30.05-2.63-4.67-6.71-8.25-11.56-10.48-4.79-2.2-10.12-3.31-14.67-6-4.4-2.6-5.21-5.77-1.8-9.4 27.01.37 42.96 26.63 49.71 65.88-.48-.09-.96-.14-1.43-.25z" opacity=".5"></path><path fill="#394ca4" d="M3302.46 2399.25s71.29-191.75 149.95-142.58c78.67 49.17-149.95 142.58-149.95 142.58z"></path><path fill="#f2faff" d="M3449.21 2254.96c-.82 1.84-2.66 3.52-4.07 4.1-3.14 1.28-7.19.78-10.51.72-7.31-.14-14.83-.65-22.04.79-7.76 1.56-15.17 6.05-21.57 10.56-11.74 8.29-19.32 21.2-31.38 28.94-1.95 1.25-4.72 2.63-7.85 3.82 26.46-38.13 61.04-68.72 97.42-48.93z" opacity=".2"></path><path fill="#394ca4" d="M3302.46 2399.25s-263.04-31.96-196.66-73.75c66.37-41.79 196.66 73.75 196.66 73.75z"></path><path fill="#f2faff" d="M3214.62 2340.88c-7.75-1.42-13.44-5.98-20.04-9.91-6.24-3.71-13-6.72-20.12-8.22-10.09-2.12-20.24.45-30.37-.93-3.54-.48-7.69-1.7-9.03-5.21 26.27-1.62 56.65 9.82 84.28 24.71-1.57-.06-3.14-.15-4.72-.44z" opacity=".2"></path><path fill="#fb8a77" d="M1150.8 826.3s108.91 89.28 153.61 92.31c48.43 3.29 178.43-76.58 178.43-76.58l27.53 40.47s-156.91 137.05-225.02 137.27c-60.18.19-205.61-125.18-205.61-125.18l71.06-68.29z"></path><path fill="#fb8a77" d="m1482.84 842.04 20.05-16.55s.93-80.33 12.04-70.15c11.12 10.19 17.35 25.02 17.35 25.02s16-33.38 31.75-22.62c15.75 10.77 49.18 50.53 32.9 63.14-16.28 12.62-14.29 36.07-37.51 32.74-18.25-2.63-49.05 28.88-49.05 28.88l-27.53-40.46z"></path><path fill="#231f20" d="M986.73 2412.02c15.1-6.77 32.23-6.27 44.86-4.36 9.07 1.37 17.09 6.18 24.2 12.38 19.05 16.62 74.01 19.73 86.32 32.97 14.07 15.14-11.73 25.23-11.73 25.23h-139.5c-22.23 3.78-19.99-8.83-19.99-8.83s-12.31-44.77 15.84-57.39z"></path><path fill="#ff8d7d" d="M1039.23 2343.77v86.97s-26.65 19.64-53.3 0v-86.97h53.3z"></path><path fill="#202234" d="m897.09 1213.18 44.89 612.78 37.08 580.46 67.62-9.98 63.63-609.41-71.08-573.85z"></path><path fill="#231f20" d="M717.06 2416.82c16.02-3.97 33.03-.9 45.35 2.8 8.85 2.66 16.17 8.33 22.38 15.17 16.64 18.32 71.01 29.58 81.42 43.74 11.89 16.18-15.27 21.6-15.27 21.6l-139.12-21.27c-22.7.12-18.68-11.23-18.68-11.23s-5.94-43.41 23.92-50.81z"></path><path fill="#ff8d7d" d="m783.92 2343.77-18.1 86.97s-26.65 19.64-53.31 0l18.1-86.97h53.31z"></path><path fill="#232b57" d="M792.35 1246.15s-44.89 52.37-41.15 179.55c3.74 127.19-.22 325.44-.22 325.44l-32.19 625.53s49.47 27.84 65.13 17.44c157.56-104.56 158.06-743.97 158.06-743.97s63.59-418.95 22.44-433.92c-41.14-14.95-172.07 29.93-172.07 29.93z"></path><path fill="#4094f2" d="M1067.26 951.15s72.98 21.94 85.6 12.11c12.63-9.82 56.29-108.48 43.49-117.36-12.8-8.88-143.75-89.38-218.06-91.46-.01 0 110.01 141.54 88.97 196.71z"></path><path fill="#231f20" d="M1196.35 845.9c-5-3.47-28.07-17.89-58.74-34.29-3.29 4.17-6.17 8.67-9.05 13.11-4.27 6.59-8.48 13.24-13.34 19.42-4.49 5.71-9.65 11.17-16.02 14.79-6.19 3.53-13.23 4.79-20.26 3.59-1.91-.33-3.96-.71-5.7-1.6-1.87-.95-3.53-2.31-5.1-3.69-3.88-3.42-7.3-7.32-11.17-10.74-4.17-3.7-9.09-6.23-14.18-8.46-3.58-1.57-7.27-2.87-11-4 24.41 41.84 45.84 89.95 35.48 117.12 0 0 72.98 21.94 85.6 12.11 12.62-9.81 56.27-108.47 43.48-117.36z" opacity=".25"></path><path fill="#4094f2" d="M915.79 737.43c168.33-4.55 168.33 216.96 168.33 216.96s34.42 263.71-28.06 314.22c-54.91 44.39-237.53 54.5-282.42 0-47.57-57.74 0-299.25 0-299.25s-54.73-226.62 142.15-231.93z"></path><path fill="#231f20" d="M977.82 1265.6c-8.38-5.78-18.23-7.09-28.19-6.91-10.66.2-21.26 1.41-31.92.46-9.57-.85-18.73-3.35-27.37-7.53-8.37-4.06-16.4-8.84-24.24-13.84-17.95-11.44-35.63-24.25-50.57-39.49-6.54-6.67-12.09-13.75-15.77-22.4-5.31-12.48-7.17-26.08-7.22-39.56-.11-29.53 7.37-58.48 7.69-88 .48-44-6.66-87.29-14.48-130.45-2.3 1.51-4.5 3.17-6.63 4.91-3.83 3.14-7.45 6.54-11.06 9.94 2.04 21.95 5.58 36.61 5.58 36.61s-47.57 241.51 0 299.25c34.15 41.46 148.02 45.52 224.72 25.55-4.25-11.24-10.54-21.64-20.54-28.54z" opacity=".25"></path><path fill="#fb8a77" d="m766.66 953.94-75.3 157.55 114.09 157.11-25.89 39.22s-175.82-126.2-191.07-192.59c-13.47-58.66 96.17-215.34 96.17-215.34l82 54.05z"></path><path fill="#fb8a77" d="m805.45 1268.6 48.92 20.85s50.21-9.39 42.73 3.71c-7.48 13.09-20.58 10.04-20.58 10.04s36.09 8.24 29.07 25.97c-7.02 17.73-38.42 59.13-54.32 46.03-15.9-13.09-37.41-8.65-39.28-32.03-1.47-18.38-32.44-35.36-32.44-35.36l25.9-39.21z"></path><path fill="#4094f2" d="m773.65 969.35-33.67 33.66s-107.54-48.16-107.54-69.2c0-21.04 101.96-157.83 193.45-170.55 41.97-5.83-52.24 206.09-52.24 206.09z"></path><path fill="#726658" d="m767.42 2319.99 86.39-532.7.03-394.05c48.09-15.83 69.82-87.44 70.73-90.5l-3.14-.93c-.22.74-22.49 74.14-69.71 88.67l-1.15.36v396.19l-86.36 532.44 3.21.52z"></path><path fill="#726658" d="M1014.22 2333.86c3.3-52.51 32.12-513.25 26.44-523.65-4.35-7.98-52.15-208.45-76.82-313.34l-3.2.75c2.93 12.4 71.5 303.79 77.15 314.15 4.21 11.26-17.95 380.54-26.85 521.88l3.28.21z" opacity=".5"></path><path fill="#fff" d="M1045.56 853.31c-28.95 15.34-62.61 26.61-94.23 23.66-15.8-1.47-29.14-9.71-43.55-17.21-14.14-7.35-30.98-12.33-44.27.23-2.64 2.5-5.19-3.14-2.58-5.61 26.1-24.66 55.78 8.81 81.84 14.73 17.22 3.91 35.42.94 52.44-3.2 16.82-4.08 33.19-10.5 48.99-18.87 3.03-1.6 4.36 4.68 1.36 6.27zM1052.23 913.19c-16.93 3.26-33.86 6.53-50.8 9.79-15.78 3.04-32.14 8.13-48.12 8.64-14.72.48-25.16-12.62-38.79-17.26-15.44-5.25-31.76-3.16-47.44-1.17-3.27.41-3.25-6.08 0-6.5 14.1-1.79 28.4-3.43 42.46-.36 6.64 1.45 13 4.13 19.01 8.01 7.36 4.76 13.91 10.38 22.47 10.78 8.47.4 17.17-2.28 25.52-3.88 7.85-1.51 15.69-3.02 23.54-4.54 16.93-3.26 33.86-6.53 50.79-9.79 3.22-.6 4.6 5.66 1.36 6.28zM1041.51 964.32c-27.9 10.19-57.04 17.75-86.09 11.91-14.3-2.87-28.06-8.79-41.5-15.44-14.5-7.16-29.08-15.1-44.98-12.71-3.26.49-3.23-6.01 0-6.49 13.85-2.09 26.92 3.34 39.69 9.62 13.52 6.66 27.02 13.31 41.26 17.13 30.34 8.14 60.98.41 90.27-10.29 3.16-1.15 4.51 5.11 1.35 6.27z"></path><path fill="#fb8a77" d="m891.03 647.25-8.32 99.8s31.77 45.51 62.16 10.65l-2-66.96-51.84-43.49z"></path><path fill="#33133f" d="M918.34 759.44c6.46-11.44 8.72-28.72-1.77-38.62-4.25-4.01-9.72-6.46-13.82-10.64-5.09-5.2-6.13-13.19-5.52-20.15.99-11.35 5.62-22.48 4.63-33.7l41 34.4 2 66.96c-11.87 13.61-23.94 14.95-34.25 11.54 2.98-2.81 5.62-6.05 7.73-9.79z" opacity=".15"></path><path fill="#fb8a77" d="M1021.25 542.54s8.36 160.09-55.18 166.21c-63.54 6.13-92.61-60.36-92.61-60.36s-11.6 7.46-14.59-4.21-17.3-32.08-3.49-40.14c13.82-8.06 18.5 4.7 18.5 4.7l-8.44-36.14c.01 0 153.23-82.49 155.81-30.06z"></path><path fill="#33133f" d="M868.35 612.11s-8.46-4.38-11.69 2.22c-3.24 6.59 4.57 31.42 14.4 28.24 0 0-12.83-5.31-11.58-20.58 1.23-15.28 6.77-4.99 8.87-9.88z" opacity=".05"></path><path fill="#202234" d="M869.83 605.1c4.58 6.57 42.31-60.04 68.99-46.13 26.69 13.91 58.79 8.75 68.33-4.63 9.54-13.39 37.53-11.8 14.64-50.84-41.73-71.18-246.3-33.86-151.96 101.6z"></path><path fill="#33133f" d="M908.27 634.45c-.75 4.45 4.1 8.97 10.82 10.1 6.73 1.14 12.78-1.55 13.53-6 .75-4.44-4.09-8.97-10.82-10.1-6.72-1.13-12.78 1.56-13.53 6zM984.46 634.87c-.75 4.45 4.09 8.97 10.82 10.1 6.73 1.13 12.79-1.55 13.54-6s-4.1-8.97-10.82-10.1c-6.73-1.13-12.79 1.56-13.54 6z" opacity=".05"></path><path fill="#202234" d="M981.24 593.07c.65 0 1.28-.34 1.63-.94.3-.53 7.57-12.54 25.41-4.64a1.88 1.88 0 1 0 1.52-3.44c-21.03-9.32-30.11 6.05-30.2 6.2-.51.9-.19 2.05.7 2.57.3.18.62.25.94.25zM944.76 593.4c.24 0 .47-.05.7-.14.96-.39 1.43-1.47 1.05-2.43-.07-.17-6.9-16.59-31.63-11.28a1.887 1.887 0 0 0-1.45 2.23 1.866 1.866 0 0 0 2.23 1.44c21.5-4.61 27.12 8.44 27.35 9 .31.74 1.01 1.18 1.75 1.18zM966.18 640.9c.65 0 1.29-.09 1.92-.27 3.99-1.16 5.68-5.65 5.75-5.84.2-.56.13-1.18-.19-1.68-6.72-10.32-4.95-24.34-4.94-24.48.14-1.03-.58-1.97-1.61-2.11-.99-.16-1.98.58-2.11 1.61-.09.61-1.9 14.77 4.95 26.14-.54.99-1.55 2.36-2.91 2.74-1.28.36-2.82-.14-4.59-1.5-.82-.63-2-.47-2.63.35-.63.83-.47 2 .35 2.63 2.06 1.61 4.08 2.41 6.01 2.41z"></path><path fill="#202234" d="M870.89 566.64s-2.13 64.26 38.7 100.83c0 0 4.26-23.43 51.48-16.69 47.22 6.74 40.11 21.3 40.11 21.3s11.47-1.85 18.15-67.57c-1.03 41.47-2.64 53.11-2.64 53.11s-7.34 46.06-46.39 54.22c-39.05 8.17-96.38-14.37-96.48-64.52 0 0 2.75-33.11-6.12-52.28-8.88-19.17-13.14-26.97 3.19-28.4z"></path><path fill="#fcfaf7" d="M978.27 659.81s-21.45 9.72-45.48-1.46c-5.45 9.98 23.03 35.97 45.48 1.46z"></path><path fill="#202234" d="M986.94 608.66c0 5.86 3.25 10.61 7.26 10.61s7.25-4.75 7.25-10.61c0-5.86-3.25-10.6-7.25-10.6-4.01 0-7.26 4.75-7.26 10.6zM921.63 608.66c0 5.86 3.25 10.61 7.26 10.61s7.26-4.75 7.26-10.61c0-5.86-3.25-10.6-7.26-10.6s-7.26 4.75-7.26 10.6z"></path><path fill="#6ea4fe" d="M2639.49 811.61H1197.45c-48.11 0-87.11 39-87.11 87.11v550.09c0 48.11 39 87.11 87.11 87.11h1442.17c48.04 0 86.98-38.94 86.98-86.98V898.72c-.01-48.11-39.01-87.11-87.11-87.11z"></path><path fill="#5994ea" d="M2452.03 1175.22s-3.79 70.68 51.79 65.07c55.58-5.61 222.83 100.84 222.83 100.84v-175.65l-274.62 9.74z"></path><path fill="#fb8a77" d="m2791.2 991.98-35.42 132.25-199.73 31.05-1.59 42.12s177.19 28.29 227-2.7c44.01-27.38 92.84-185.37 92.84-185.37l-83.1-17.35z"></path><path fill="#231f20" d="M2957.43 2412.15c-12.04-4.38-25.41-3.4-35.23-1.56-7.05 1.32-13.16 5.11-18.51 9.88-14.34 12.77-57.22 17.01-66.41 27.08-10.5 11.51 10.01 17.92 10.01 17.92l109.1-5.02c17.51 1.95 15.34-7.14 15.34-7.14s8.13-33-14.3-41.16z"></path><path fill="#fb8a77" d="m2916.3 2367.25 2.62 56.86s18.01 12.04 34.85-1.6l-2.62-56.86-34.85 1.6z"></path><path fill="#202234" d="M3091.4 1365.08s69.69 62.4 44.55 175.14c-25.14 112.74-144.38 382.9-144.38 382.9l-24.98 468.52-59.95.83-63.84-524.86s61.08-552.42 100.33-558.7c39.24-6.29 148.27 56.17 148.27 56.17z"></path><path fill="#231f20" d="M3552.13 2289.49c-12.31 2.67-22.92 10.5-30.12 17.19-5.16 4.8-8.27 11.15-10.22 17.93-5.22 18.15-38.66 44.16-41.02 57.36-2.69 15.08 17.73 9.65 17.73 9.65l88.1-61.41c15.59-7.56 9.01-13.99 9.01-13.99s-10.54-31.71-33.48-26.73z"></path><path fill="#fb8a77" d="m3494.37 2273.72 32.01 45.92s21.3.56 28.14-19.62l-32.01-45.92-28.14 19.62z"></path><path fill="#232b57" d="M3177.91 1317.64s12.84-11.47 62.46 92.84c28.01 58.88 29.87 186.98 29.87 186.98l67.52 218.73 208.37 462.76-36.08 25.54-323.42-434.05s-277.28-517.7-246.14-542.4c31.15-24.7 237.42-10.4 237.42-10.4z"></path><path fill="#4094f2" d="M2953.26 857.01c-74.94 10.83-170.77 83.5-184.25 176.88l91.95 24.44c.01 0 145.2-208.96 92.3-201.32z"></path><path fill="#231f20" d="m2838.56 1052.37-18.18-4.83 62.41-132.4c0 .01-19.51 121.17-44.23 137.23z" opacity=".25"></path><path fill="#4094f2" d="M2913.79 1373.57s26.35-192.12-4.67-226.32c-31.02-34.2-91.2-40.74-66.53-108.4 24.48-67.66 61.86-152.32 105.6-181.1 15.33-9.91 71.39-14.95 71.39-14.95s135.87-39.99 147.08 9.91c4.67 20.56 4.86 91.2 6.73 172.31 1.3 57.56 3.17 120.54 7.66 174.74 4.86 56.07 12.33 102.42 25.04 123.53 32.14 53.46-292.3 50.28-292.3 50.28z"></path><path fill="#fb8a77" d="m3200.7 1016.66 100.14 117.45-67.84 230.05 34.19 2.66s126.34-205.31 116.89-263.21c-8.35-51.15-135.41-156.99-135.41-156.99l-47.97 70.04z"></path><path fill="#fb8a77" d="M3215.4 1389.77s-2.71-17.49.56-21.39c7.59-9.05 19.25-11.75 22.79-10.56-10.17 9.93-23.35 31.95-23.35 31.95z"></path><path fill="#fff" d="M3223.43 1366.73c-2.31.27-4.6.94-6.93 1.04 7.59-8.55 18.78-11.12 22.25-9.96-2.66 2.6-5.53 6.03-8.31 9.67-2.29-.64-4.61-1.03-7.01-.75z" opacity=".2"></path><path fill="#fb8a77" d="M3267.24 1388.03c-1.34 3.28-2.86 6.49-4.55 9.37l.01.01c-.01.01-.01.01-.01.03-.08.15-.44.94-.98 2.08l-.01.01c-.43.91-1 2-1.64 3.15 0 0-6.35 13.41-10.81 13.2-4.46-.22-5.25-3.49-5.25-3.49s-3.12 3-6.93 1.14c-3.81-1.86-3.65-4.96-3.65-4.96s-2.8 2.85-7.14.75-4.55-6.49-4.55-6.49-4.5 4.03-8.2-2.45c-3.69-6.45 2.71-15.31 2.93-15.72.9-1.75 1.86-3.41 2.85-4.97.27-.42.47-.9.82-1.26 24.99-25.9 41.42-83.25 47.73-84.28 0 0 28.98 5.96 28.9 13.29-2.48 6.35-29.58 59.39-29.58 59.39s5.08 8.9.06 21.2z"></path><path fill="#fff" d="M3262.7 1397.4v.04c-.08.15-.44.94-.98 2.08l-.01.01c-.43.91-1 2-1.64 3.15 0 0-6.35 13.41-10.81 13.2-4.46-.22-5.25-3.49-5.25-3.49s-3.12 3-6.93 1.14c-3.81-1.86-3.65-4.96-3.65-4.96s-2.8 2.85-7.14.75-4.55-6.49-4.55-6.49-4.5 4.03-8.2-2.45c-1.33-2.32-1.34-4.95-.81-7.38 1.23 2.52 3.29 4.93 5.83 6.06.65.29 1.35.49 2.07.52.82.04 1.63-.15 2.44-.18 1.77-.07 2.88 1.31 4.06 2.45 1.52 1.48 3.14 2.77 5.24 3.24 1.58.35 3.2.22 4.8.21 1.68-.02 3.34.22 4.77 1.18 1.36.92 2.61 1.82 4.24 2.19 2.82.65 5.45-.63 7.48-2.53 1.4-1.32 2.48-2.91 3.6-4.46 1.45-2.02 2.86-4.08 4.27-6.13 2.42-3.51 4.84-6.97 6.82-10.75a31.8 31.8 0 0 1-1.1 3.24c-1.34 3.27-2.86 6.47-4.55 9.36z" opacity=".2"></path><path fill="#231f20" d="M3181.04 1199.77c-6.91-16.07-15.51-32.89-25.6-47.47-28.78-41.68-93.63-29.16-93.63-29.16 87.28-21.49 91.39-68.03 91.39-68.03 5.42-11.21 13.08-21.68 20.19-30.09 1.3 57.57 3.17 120.55 7.65 174.75z" opacity=".25"></path><path fill="#4094f2" d="M3145.26 831.94s106.7 53.08 147.38 141.45c0 0-47.94 52.56-84.32 64.88l-42.78-31.48-20.28-174.85z"></path><path fill="#f56f58" d="m3048.76 835.6 12.66-3.66s26.65 61.4-44.89 69.82c-71.54 8.42-85.57-14.73-85.57-14.73s-4.67-19.3 13.47-28.1 104.33-23.33 104.33-23.33z"></path><path fill="#231f20" d="M2987.26 589.91c-13.78 3.75-65.45 3.74-85.44 33.52-21.7 31.28 4.55 86.26-28.09 92.37-35.39.67-20.11 44.75 9.81 64.06 14.52 9.67 48.02 16.15 63.1 24.51 24.28 15.97 69.15 24.19 102.93 18.41 34.04-4.71 57.01-23.42 43.54-36.54-27.72-32.38 13.94-44.09-13.77-78.56-22.33-30.42-11.48-39.12-17.91-53.16-19.91-46.32-39.08-68.53-74.17-64.61z"></path><path fill="#f18a66" d="m3019.85 756.14 9.61 95.27s-29.62 44.03-59.24 11.21l.8-64.05 48.83-42.43z"></path><path fill="#33133f" d="M2995.6 863.84c-6.37-10.83-8.81-27.31 1.05-36.95 3.99-3.9 9.19-6.34 13.03-10.4 4.78-5.05 5.64-12.71 4.95-19.35-1.14-10.84-5.74-21.4-4.99-32.14l-38.63 33.56-.8 64.05c11.57 12.82 23.13 13.89 32.93 10.47-2.88-2.64-5.46-5.7-7.54-9.24z" opacity=".15"></path><path fill="#f18a66" d="M2893.63 658.2s-5.34 153.18 55.51 157.98c60.84 4.81 87.53-59.24 87.53-59.24s11.21 6.94 13.88-4.27 16.01-30.95 2.67-38.43c-13.34-7.47-17.61 4.81-17.61 4.81l7.47-34.69c-.01-.01-147.85-76.33-149.45-26.16z"></path><path fill="#33133f" d="M3041.5 721.15s8.01-4.33 11.21 1.92c3.21 6.25-3.84 30.12-13.29 27.23 0 0 12.17-5.29 10.73-19.86-1.44-14.57-6.56-4.64-8.65-9.29zM3004.61 758.11c.71 4.25-3.92 8.57-10.35 9.66-6.43 1.08-12.23-1.48-12.94-5.73-.72-4.25 3.91-8.58 10.35-9.66 6.43-1.09 12.22 1.48 12.94 5.73zM2931.76 758.51c.72 4.25-3.91 8.58-10.35 9.66-6.43 1.08-12.23-1.48-12.94-5.74-.72-4.25 3.91-8.58 10.35-9.66 6.43-1.08 12.22 1.49 12.94 5.74z" opacity=".05"></path><path fill="#231f20" d="M2934.84 718.54c-.62 0-1.23-.32-1.56-.9-.3-.51-7.25-12-24.3-4.43-.91.41-1.97-.01-2.37-.92-.4-.91.01-1.97.92-2.37 20.11-8.91 28.79 5.78 28.88 5.93a1.799 1.799 0 0 1-1.57 2.69zM2969.72 718.86c-.22 0-.45-.04-.67-.13a1.791 1.791 0 0 1-1-2.33c.06-.16 6.6-15.84 30.24-10.79.97.21 1.59 1.16 1.38 2.14-.21.97-1.16 1.59-2.14 1.38-20.55-4.41-25.93 8.07-26.15 8.61-.28.7-.95 1.12-1.66 1.12zM2949.24 764.27c-.62 0-1.23-.09-1.83-.26-3.81-1.11-5.42-5.4-5.49-5.58-.2-.53-.13-1.13.18-1.6 6.45-9.9 4.74-23.27 4.72-23.4a1.8 1.8 0 0 1 1.54-2.02c1.01-.13 1.89.56 2.02 1.54.08.59 1.81 14.12-4.74 24.99.52.94 1.48 2.25 2.78 2.63 1.21.35 2.69-.13 4.39-1.43.79-.6 1.92-.45 2.52.33.6.79.45 1.92-.33 2.52-1.99 1.52-3.92 2.28-5.76 2.28z"></path><path fill="#fcfaf7" d="M2937.68 782.35s20.51 9.29 43.48-1.39c5.21 9.54-22.01 34.39-43.48 1.39z"></path><path fill="#231f20" d="M2929.39 733.45c0 5.6-3.1 10.14-6.94 10.14s-6.94-4.54-6.94-10.14c0-5.6 3.11-10.14 6.94-10.14s6.94 4.54 6.94 10.14zM2991.83 733.45c0 5.6-3.11 10.14-6.94 10.14-3.83 0-6.94-4.54-6.94-10.14 0-5.6 3.11-10.14 6.94-10.14 3.83 0 6.94 4.54 6.94 10.14z"></path><path fill="#33133f" d="M2964.28 807.81c-1.9 0-3.14-.28-3.26-.31a.909.909 0 0 1-.67-1.08c.12-.48.6-.78 1.08-.67.08.02 7.97 1.77 15.12-4.43a.91.91 0 0 1 1.27.09c.32.38.28.95-.09 1.27-4.98 4.31-10.2 5.13-13.45 5.13z" opacity=".05"></path><path fill="#231f20" d="M2921.33 633.06c.37-6.43.05-10.62.05-10.62-63.25 5.6-32.82 71.25-32.82 71.25 21.96-10.98 29.4-34.19 31.83-51.15 16.99 23.26 70.19 51.11 129.65 52.31l7.45-13.17-136.16-48.62z"></path><path fill="#33133f" d="M2915.43 631.8c2.74 17.72 15.44 33.2 28.97 44.18 17.81 14.46 39.93 23.25 62.83 24.78 15.31 1.03 30.61-1.36 45.1-6.31 2.72-.93 1.55-5.27-1.19-4.33-23.73 8.11-49.21 8.57-72.88-.02-18.79-6.81-36.4-19.11-48.03-35.51-5.1-7.18-9.1-15.22-10.46-23.99-.44-2.84-4.77-1.63-4.34 1.2z"></path><path fill="#fff" d="M1594 1067.29v192.76h-14.05v-91.69h-128.87v91.69h-14.03v-192.76h14.03v88.66h128.87v-88.66H1594zM1801.08 1247.38v12.67h-133.01v-192.76h128.87v12.67h-114.82v76h102.71v12.4h-102.71v79.03h118.96zM1859.17 1067.29h14.05v180.09h110.97v12.67h-125.02v-192.76zM2027.15 1067.29h14.03v180.09h110.98v12.67h-125.02v-192.76zM2221.82 1248.62c-15.24-8.54-27.21-20.24-35.93-35.11s-13.07-31.48-13.07-49.84c0-18.35 4.35-34.97 13.07-49.83 8.72-14.88 20.69-26.57 35.93-35.11 15.24-8.54 32.31-12.81 51.23-12.81 18.9 0 35.97 4.23 51.21 12.67 15.24 8.45 27.21 20.1 35.93 34.98 8.72 14.87 13.07 31.57 13.07 50.11s-4.35 35.25-13.07 50.12c-8.72 14.87-20.69 26.53-35.93 34.98s-32.31 12.67-51.21 12.67c-18.92-.03-35.99-4.3-51.23-12.83zm95.01-11.15c13.02-7.34 23.31-17.49 30.84-30.43 7.51-12.95 11.28-27.4 11.28-43.38 0-15.97-3.77-30.43-11.28-43.37-7.53-12.94-17.82-23.08-30.84-30.43-13.04-7.34-27.64-11.01-43.79-11.01-16.16 0-30.8 3.68-43.93 11.01-13.13 7.34-23.45 17.49-30.98 30.43-7.53 12.94-11.3 27.4-11.3 43.37 0 15.98 3.77 30.43 11.3 43.38 7.53 12.94 17.85 23.08 30.98 30.43 13.13 7.35 27.76 11.01 43.93 11.01 16.15 0 30.75-3.66 43.79-11.01z"></path><g opacity=".25"><path fill="#4094f2" d="M2115.8 620.66c0 4.53 3.67 8.2 8.2 8.2 4.53 0 8.19-3.67 8.19-8.2 0-4.53-3.67-8.2-8.19-8.2-4.53.01-8.2 3.68-8.2 8.2zM2068.25 620.66c0 4.53 3.67 8.2 8.2 8.2 4.52 0 8.2-3.67 8.2-8.2 0-4.53-3.67-8.2-8.2-8.2-4.53.01-8.2 3.68-8.2 8.2zM2020.7 620.66c0 4.53 3.67 8.2 8.2 8.2 4.52 0 8.2-3.67 8.2-8.2 0-4.53-3.67-8.2-8.2-8.2-4.54.01-8.2 3.68-8.2 8.2z"></path><circle cx="1981.34" cy="620.66" r="8.2" fill="#4094f2"></circle><circle cx="1933.79" cy="620.66" r="8.2" fill="#4094f2"></circle><path fill="#4094f2" d="M2100.84 661.14c0 4.53 3.67 8.2 8.19 8.2 4.53 0 8.2-3.67 8.2-8.2 0-4.53-3.67-8.19-8.2-8.19-4.52-.01-8.19 3.66-8.19 8.19zM2053.29 661.14c0 4.53 3.67 8.2 8.2 8.2 4.53 0 8.2-3.67 8.2-8.2 0-4.53-3.67-8.19-8.2-8.19-4.53-.01-8.2 3.66-8.2 8.19zM2005.74 661.14c0 4.53 3.67 8.2 8.2 8.2 4.53 0 8.2-3.67 8.2-8.2 0-4.53-3.67-8.19-8.2-8.19-4.53-.01-8.2 3.66-8.2 8.19zM1958.19 661.14c0 4.53 3.67 8.2 8.2 8.2 4.53 0 8.19-3.67 8.19-8.2 0-4.53-3.67-8.19-8.19-8.19-4.53-.01-8.2 3.66-8.2 8.19zM1910.64 661.14c0 4.53 3.67 8.2 8.2 8.2 4.53 0 8.2-3.67 8.2-8.2 0-4.53-3.67-8.19-8.2-8.19-4.53-.01-8.2 3.66-8.2 8.19zM1863.08 661.14c0 4.53 3.67 8.2 8.2 8.2 4.53 0 8.2-3.67 8.2-8.2 0-4.53-3.67-8.19-8.2-8.19-4.52-.01-8.2 3.66-8.2 8.19z"></path></g><g opacity=".25"><path fill="#4094f2" d="M1495.29 1889.89c4.53 0 8.2-3.67 8.2-8.2 0-4.53-3.67-8.19-8.2-8.19-4.53 0-8.2 3.67-8.2 8.19 0 4.53 3.67 8.2 8.2 8.2zM1495.29 1937.44c4.53 0 8.2-3.67 8.2-8.2 0-4.52-3.67-8.2-8.2-8.2-4.53 0-8.2 3.67-8.2 8.2 0 4.53 3.67 8.2 8.2 8.2zM1495.29 1984.99c4.53 0 8.2-3.67 8.2-8.2 0-4.52-3.67-8.2-8.2-8.2-4.53 0-8.2 3.67-8.2 8.2 0 4.54 3.67 8.2 8.2 8.2z"></path><circle cx="1495.29" cy="2024.35" r="8.2" fill="#4094f2"></circle><circle cx="1495.29" cy="2071.9" r="8.2" fill="#4094f2"></circle><path fill="#4094f2" d="M1535.76 1904.84c4.53 0 8.2-3.67 8.2-8.19 0-4.53-3.67-8.2-8.2-8.2-4.53 0-8.19 3.67-8.19 8.2 0 4.53 3.66 8.19 8.19 8.19zM1535.76 1952.4c4.53 0 8.2-3.67 8.2-8.2 0-4.53-3.67-8.2-8.2-8.2-4.53 0-8.19 3.67-8.19 8.2 0 4.53 3.66 8.2 8.19 8.2zM1535.76 1999.95c4.53 0 8.2-3.67 8.2-8.2 0-4.53-3.67-8.2-8.2-8.2-4.53 0-8.19 3.67-8.19 8.2 0 4.53 3.66 8.2 8.19 8.2zM1535.76 2047.5c4.53 0 8.2-3.67 8.2-8.2 0-4.53-3.67-8.19-8.2-8.19-4.53 0-8.19 3.67-8.19 8.19 0 4.53 3.66 8.2 8.19 8.2zM1535.76 2095.05c4.53 0 8.2-3.67 8.2-8.2 0-4.53-3.67-8.2-8.2-8.2-4.53 0-8.19 3.67-8.19 8.2 0 4.53 3.66 8.2 8.19 8.2zM1535.76 2142.6c4.53 0 8.2-3.67 8.2-8.2 0-4.53-3.67-8.2-8.2-8.2-4.53 0-8.19 3.67-8.19 8.2 0 4.53 3.66 8.2 8.19 8.2z"></path></g><path fill="#fb8a77" d="M2488.78 1213.37c11.64-.09 22.02-.69 27.3-1.81 4.07-.86 7.89-2.15 11.33-3.61 2.95-1.26 5.62-2.64 7.94-3.99 6.05-3.47 9.72-6.71 9.72-6.71l86.2 3.5c3.84-16.26.75-39.06 0-42.93 0 0-79.49 3.93-90.9-5.59-.11-.06-.23-.17-.32-.26a9.55 9.55 0 0 1-.34-.57c-1.89-2.84-6.34-5.68-11.73-7.91-3.96-1.63-8.4-2.95-12.67-3.76-10.44-1.95-22.14-28.59-27.93-25.52-5.79 3.1-3.18 20.39 3.79 25.81 6.94 5.42 2.01 11.59-6.39 11.59h-2.64c-16.78 0-68.68.26-70 8.66-.86 5.48 20.68 7.54 37.39 8.32-20.48-.2-49.84.57-47.75 6.65 1.61 4.67 31.32 7.54 47.92 8.98-11.47.06-34.15 1-34.24 4.93-.17 8.49 23.34 9.66 39.2 9.49-9.43.75-20.16 2.61-20.82 7.14-.78 5.52 30.02 7.82 54.94 7.59z"></path><path fill="#231f20" d="M2477.93 1169.67c-.03 0-.05.03-.07.02l-25.85-1.76 25.91.32h.04c.05 0 1-5.4 1.85-8.01-.66 3.89-.91 7.81-1.02 11.72-.03 1.45-.04 2.91-.03 4.36 0 .01-.92-5.9-.83-6.65zM2477.9 1186.02c-.02 0-.03.02-.05.02l-25.85-1.76 25.73.32c-.1-3.89 1.05-6.45 1.05-6.45.04 1.85.11 3.7.27 5.54.15 2.23.54 4.45 1.03 6.66-.33.06-1.95-2.8-2.18-4.33zM2481.17 1198.85l-25.91-.17 25.69-1.26c-.24-.66-.87-5.23-.47-5.3h.01c.25.99.5 1.99.77 2.97 1.04 3.76 2.27 7.47 3.58 11.17-1.31-2.41-3.56-7.41-3.67-7.41z" opacity=".25"></path><path fill="#fb8a77" d="M1551.35 789.42s-.89.88-2.32 2.36c-.05-5.73-1.36-12.2-6.97-12.71-10.21-.93-38.91 38.31-29.95 42.02 4 1.65 11.62-2.23 18.84-7.03-4.97 8.04-3.65 18.98 4.18 20.32 11.61 1.98 17.75-10.47 23.3-17.57-6.78 10.78-10.57 28.83-2.59 28.51 11.59-.46 25.17-24.38 25.17-24.38s-12.05 19.46 0 24.1c10.13 3.89 20.27-33.42 20.27-33.42s-16.56-41.2-49.93-22.2z"></path></svg>