<svg xmlns="http://www.w3.org/2000/svg" xmlns:xlink="http://www.w3.org/1999/xlink" data-name="Layer 1" viewBox="0 0 1400 1000" id="robot-checking-user-profile"><defs><linearGradient id="a" x1="307.62" x2="304.81" y1="883.99" y2="807.12" gradientUnits="userSpaceOnUse"><stop offset="0" stop-color="#fff" stop-opacity="0"></stop><stop offset=".01" stop-color="#fcfdfe" stop-opacity=".02"></stop><stop offset=".14" stop-color="#d1ddef" stop-opacity=".27"></stop><stop offset=".28" stop-color="#acc2e1" stop-opacity=".5"></stop><stop offset=".43" stop-color="#8eacd6" stop-opacity=".68"></stop><stop offset=".57" stop-color="#769ace" stop-opacity=".82"></stop><stop offset=".71" stop-color="#658ec8" stop-opacity=".92"></stop><stop offset=".85" stop-color="#5b86c4" stop-opacity=".98"></stop><stop offset="1" stop-color="#5884c3"></stop></linearGradient><linearGradient id="d" x1="713.49" x2="713.49" y1="829.55" y2="489.83" xlink:href="#a"></linearGradient><linearGradient id="b" x1="599.19" x2="836.24" y1="716.51" y2="716.51" gradientUnits="userSpaceOnUse"><stop offset="0" stop-color="#4058a6"></stop><stop offset=".25" stop-color="#415aa8" stop-opacity=".97"></stop><stop offset=".49" stop-color="#4562ad" stop-opacity=".89"></stop><stop offset=".72" stop-color="#4c6fb5" stop-opacity=".74"></stop><stop offset=".96" stop-color="#5680c0" stop-opacity=".54"></stop><stop offset="1" stop-color="#5884c3" stop-opacity=".5"></stop></linearGradient><linearGradient id="e" x1="599.19" x2="836.24" y1="743.69" y2="743.69" xlink:href="#b"></linearGradient><linearGradient id="f" x1="599.19" x2="836.24" y1="573.85" y2="573.85" xlink:href="#b"></linearGradient><linearGradient id="g" x1="599.19" x2="836.24" y1="601.03" y2="601.03" xlink:href="#b"></linearGradient><linearGradient id="h" x1="599.19" x2="836.24" y1="519.49" y2="519.49" xlink:href="#b"></linearGradient><linearGradient id="i" x1="599.19" x2="836.24" y1="492.31" y2="492.31" xlink:href="#b"></linearGradient><linearGradient id="j" x1="599.19" x2="836.24" y1="546.67" y2="546.67" xlink:href="#b"></linearGradient><linearGradient id="k" x1="293.46" x2="451.27" y1="253.22" y2="253.22" gradientUnits="userSpaceOnUse"><stop offset="0" stop-color="#fff" stop-opacity="0"></stop><stop offset=".1" stop-color="#fde6e6" stop-opacity=".15"></stop><stop offset=".28" stop-color="#fabbba" stop-opacity=".4"></stop><stop offset=".46" stop-color="#f79796" stop-opacity=".62"></stop><stop offset=".63" stop-color="#f57b79" stop-opacity=".78"></stop><stop offset=".78" stop-color="#f36765" stop-opacity=".9"></stop><stop offset=".91" stop-color="#f25a58" stop-opacity=".97"></stop><stop offset="1" stop-color="#f25654"></stop></linearGradient><linearGradient id="l" x1="943.01" x2="1255.04" y1="336.66" y2="336.66" gradientUnits="userSpaceOnUse"><stop offset="0" stop-color="#4058a6"></stop><stop offset="1" stop-color="#5884c3" stop-opacity=".1"></stop></linearGradient><linearGradient id="m" x1="963.88" x2="1119.85" y1="322.78" y2="322.78" gradientTransform="translate(103.73)" xlink:href="#b"></linearGradient><linearGradient id="n" x1="963.88" x2="1119.85" y1="357.17" y2="357.17" gradientTransform="translate(103.73)" xlink:href="#b"></linearGradient><linearGradient id="o" x1="365.22" x2="470.39" y1="683.18" y2="683.18" gradientUnits="userSpaceOnUse"><stop offset="0" stop-color="#4059a6"></stop><stop offset="1" stop-color="#5883c2" stop-opacity=".1"></stop></linearGradient><linearGradient id="c" x1="454.22" x2="471.6" y1="672.96" y2="672.96" gradientUnits="userSpaceOnUse"><stop offset="0" stop-color="#4059a6"></stop><stop offset=".25" stop-color="#415ba8" stop-opacity=".97"></stop><stop offset=".48" stop-color="#4562ac" stop-opacity=".89"></stop><stop offset=".72" stop-color="#4c6eb4" stop-opacity=".75"></stop><stop offset=".95" stop-color="#567fbf" stop-opacity=".55"></stop><stop offset="1" stop-color="#5883c2" stop-opacity=".5"></stop></linearGradient><linearGradient id="p" x1="443.09" x2="460.46" y1="676.39" y2="676.39" xlink:href="#c"></linearGradient><linearGradient id="q" x1="431.52" x2="448.9" y1="679.84" y2="679.84" xlink:href="#c"></linearGradient></defs><g><rect width="166.45" height="119.73" x="301.44" y="153.71" fill="#f0f3f8" rx="3" transform="rotate(90 384.665 213.575)"></rect><path fill="#f0f3f8" d="M1104.67,337.06H909.19a5,5,0,0,1-5-5V164.53a5,5,0,0,0-5-5h-401a5,5,0,0,0-5,5V332.06a5,5,0,0,1-5,5H292.76a5,5,0,0,0-5,5V687.12a5,5,0,0,0,5,5H488.34a5,5,0,0,1,5,5V864.65a5,5,0,0,0,5,5h401a5,5,0,0,0,5-5V697.12a5,5,0,0,1,5-5h195.37a5,5,0,0,0,5-5V342.06A5,5,0,0,0,1104.67,337.06Z"></path><rect width="166.45" height="119.73" x="932.57" y="181.71" fill="#f0f3f8" rx="3"></rect></g><g><rect width="245.16" height="22.71" x="898.67" y="614.48" fill="#a8b9df" rx="3"></rect><rect width="216.67" height="213.97" x="912.92" y="637.19" fill="#a8b9df" rx="3"></rect><rect width="245.16" height="22.71" x="871.09" y="614.48" fill="#c4cfe6" rx="3"></rect><path fill="#e7ebf6" d="M1099.3,640.19v208a3,3,0,0,1-3,3h-208a3,3,0,0,1-3-3v-208a3,3,0,0,1,3-3h208a3,3,0,0,1,3,3Z"></path><rect width="166.35" height="45.56" x="910.49" y="659.4" fill="#c4cfe6" rx="3"></rect><rect width="166.35" height="45.56" x="910.49" y="724.63" fill="#c4cfe6" rx="3"></rect><rect width="166.35" height="45.56" x="910.49" y="789.85" fill="#c4cfe6" rx="3"></rect><path fill="#e7ebf6" d="M966 659.4h55.37a0 0 0 010 0v0a11.5 11.5 0 01-11.5 11.5H977.48A11.5 11.5 0 01966 659.4v0A0 0 0 01966 659.4zM966 724.63h55.37a0 0 0 010 0v0a11.5 11.5 0 01-11.5 11.5H977.48a11.5 11.5 0 01-11.5-11.5v0A0 0 0 01966 724.63zM966 789.85h55.37a0 0 0 010 0v0a11.5 11.5 0 01-11.5 11.5H977.48a11.5 11.5 0 01-11.5-11.5v0A0 0 0 01966 789.85z"></path><path fill="#c4cfe6" d="M902.14,869.65H897a2.69,2.69,0,0,1-2.69-2.68V851.16h18.49l-8.22,17A2.7,2.7,0,0,1,902.14,869.65Z"></path><path fill="#a8b9df" d="M932.47,869.65H927.3a2.68,2.68,0,0,1-2.68-2.68V851.16h18.49l-8.22,17A2.7,2.7,0,0,1,932.47,869.65Z"></path><path fill="#c4cfe6" d="M1087.49,869.65h5.16a2.68,2.68,0,0,0,2.69-2.68V851.16h-18.49l8.22,17A2.7,2.7,0,0,0,1087.49,869.65Z"></path><path fill="#a8b9df" d="M1118,869.65h5.16a2.68,2.68,0,0,0,2.69-2.68V851.16h-18.49l8.22,17A2.7,2.7,0,0,0,1118,869.65Z"></path><polygon fill="#f4f7fc" points="1001.43 637.19 945.02 851.16 900.35 851.16 956.76 637.19 1001.43 637.19" opacity=".42"></polygon><path fill="#f4f7fc" d="M1097.46,637.42,1041.1,851.16h-73l56.41-214h71.79A3,3,0,0,1,1097.46,637.42Z" opacity=".42"></path></g><g><path fill="#a8b9df" d="M304 738.6c-1.2 0-2.61-1.35-6.2-11.79-7.24-21-10.85-31.55-8.06-44 1.15-5.12 3.45-10 8.06-19.84 3.74-8 5.46-10.25 8.06-16.75 4.1-10.22 3.51-13.68 5.59-19.22 7.3-19.5 34.26-29 36.59-26.05 1 1.24-2.86 4.19-8.69 14.88a102.44 102.44 0 00-8.68 20.47c-4.2 14.94.9 16.59-3.1 32.25-2 7.73-3.38 8-7.44 21.7-2 6.74-2.11 8.22-4.34 16.75C310.44 727.29 307.48 738.6 304 738.6zM281.65 712.55c-2.2 1.75-7.88-5.64-27.29-17.36-13.21-8-29.74-16.13-31-16.75-12.88-6.32-15.95-7.06-20.46-11.78-5.71-6-4.33-8.5-12.41-19.85-6.25-8.78-8.17-8.81-13-16.74-4.14-6.78-9-16.94-6.82-18.61 1-.78 3.24.55 7.44 3.1 6.29 3.83 7.82 6.05 11.78 8.69 7 4.63 8.45 1.86 15.51 6.2 2.84 1.75 6 5.09 12.4 11.78s6.5 7.43 9.92 10.54c4.91 4.46 8.8 6.66 13 9.31A195.75 195.75 0 01263 677.2C277.66 690.08 284.88 710 281.65 712.55z"></path><path fill="#899fca" d="M175.17,617.88c7.42,7.27,14.76,14.51,22.35,21.48,1.88,1.75,3.8,3.47,5.71,5.19s3.83,3.44,5.77,5.12l11.68,10.08A272.53,272.53,0,0,0,244.9,679c4.26,2.94,8.65,5.67,13,8.49a119.09,119.09,0,0,1,12.77,9.13,61.18,61.18,0,0,1,10.71,11.77,76.35,76.35,0,0,1,7.68,14c4.2,9.8,6.55,20.16,8.31,30.41.87,5.14,1.62,10.27,2.31,15.41.34,2.56.69,5.15,1,7.74s.53,5.18.76,7.78a218.15,218.15,0,0,1,.41,31.2h-.5c-1.05-10.32-2.22-20.57-3.82-30.75-.8-5.09-1.68-10.13-2.63-15.22l-2.78-15.24c-1.89-10.1-3.78-20.15-7.43-29.56A84.18,84.18,0,0,0,278,710.57a63.36,63.36,0,0,0-9.21-12A83.37,83.37,0,0,0,257,688.89c-4.23-2.95-8.59-5.75-13-8.55-8.72-5.59-17.64-11-25.94-17.36-4.15-3.16-8.17-6.48-12-10-1.93-1.75-3.84-3.53-5.72-5.32s-3.71-3.67-5.53-5.53a200.55,200.55,0,0,1-20-23.92Z"></path><path fill="#c4cfe6" d="M268,731.7c-.65,1.69-6.88-1.39-16.48,1.58-7,2.17-7.5,5-16.9,9.66-6.77,3.36-11.49,5.7-17.66,5.81-7.88.14-9.86-3.52-21.65-6.6a79.13,79.13,0,0,0-18.44-2.43c-19.56-.68-29.82,5.68-31.64,2.72-2-3.23,7.83-14.6,19.84-22.41,25.26-16.43,53.15-12.5,57.23-11.86C248.73,712.29,269.22,728.49,268,731.7Z"></path><path fill="#a4b5dd" d="M151.31,737.44a37.9,37.9,0,0,1,10.16-6.87c.94-.43,1.89-.82,2.84-1.24s1.95-.69,2.93-1,2-.57,3-.85,2-.42,3-.63a49.15,49.15,0,0,1,12.47-.63,29.28,29.28,0,0,1,3.11.34l1.55.22.77.12.71.11c1.86.34,3.79.57,5.72.75a140.46,140.46,0,0,0,23.83,0c8-.69,15.9-2,24-2.85a62.8,62.8,0,0,1,12.36-.24,24.41,24.41,0,0,1,6.39,1.51,13,13,0,0,1,5.76,4.24,64.61,64.61,0,0,1,6.83,10.42,45.15,45.15,0,0,1,4,12l.49,3.08c.18,1,.24,2.05.35,3.08.24,2,.31,4.09.41,6.13s.06,4.07.1,6.1l-.15,6.07a236.46,236.46,0,0,1-2.25,24.09l-.5,0c-.53-8-.75-16.07-1.19-24a169.58,169.58,0,0,0-2.5-23.46,49.73,49.73,0,0,0-3.43-10.79,67.05,67.05,0,0,0-5.95-9.93c-1.65-2.53-5.24-3.81-8.91-4.55a70.64,70.64,0,0,0-11.66-1,176.67,176.67,0,0,0-23.93,1.71l-12,1.65a86.66,86.66,0,0,1-12.21.9c-1,0-2.07,0-3.12-.13-.52,0-1-.07-1.56-.13l-1.57-.22-2.93-.41c-1-.11-1.9-.35-2.86-.38l-2.88-.23c-1,0-1.92,0-2.88,0-.48,0-1,0-1.44,0l-1.45.08a27.7,27.7,0,0,0-2.88.22,56.47,56.47,0,0,0-22.21,7.17Z"></path><path fill="#c4cfe6" d="M282.27,630.07c-3.31.29-7.59-11.79-9.3-21.71-2-11.62.48-14.66,0-33.49a170.24,170.24,0,0,0-1.87-22.32c-2.15-13.91-4.74-17.56-6.82-27.29-5-23.44.64-46.41,3.72-46.51,1.54-.05,1.94,5.55,5.59,14.88,3.48,8.92,6.44,11.23,15.5,26,6.41,10.47,9.61,15.71,10.54,18.6,3.46,10.72,1.81,20-.62,32.87-2.79,14.76-5.24,14.94-9.92,34.11C285,621.92,284.91,629.84,282.27,630.07Z"></path><path fill="#a4b5dd" d="M268.25,489.85c4.33,13,8.48,26.09,13.33,38.82.59,1.59,1.22,3.17,1.86,4.73l.48,1.2.49,1.31c.3.88.56,1.77.77,2.67a46.65,46.65,0,0,1,1,10.72,102.78,102.78,0,0,1-.73,10.45c-.36,3.45-.9,6.85-1.38,10.24-1,6.77-2.09,13.5-2.74,20.28a114.77,114.77,0,0,0-.3,20.39,90.3,90.3,0,0,0,1.38,10.11c.34,1.66.63,3.37.94,5.07l.46,2.55.24,1.27.16,1.29a192.16,192.16,0,0,1,1.75,20.63c.14,6.89.18,13.8-.15,20.68S285,686,284.6,692.81s-.8,13.65-.85,20.42c-.07,3.39,0,6.75.11,10.11l.35,5c.1,1.67.43,3.29.6,4.94,2,13.4,4.91,26.84,7.14,40.4,1.13,6.79,2.11,13.63,2.67,20.52.3,3.44.44,6.89.51,10.34,0,1.72,0,3.45,0,5.17s-.15,3.44-.22,5.16h-.5c-1.54-27.46-10.39-53.43-14.89-80.79a112.89,112.89,0,0,1-1-21c.06-3.47.32-6.91.51-10.37s.53-6.87.85-10.29L281.77,672c.63-6.81,1.13-13.61,1.41-20.43l.06-5.1c0-.86,0-1.71,0-2.56l-.08-2.55c-.07-1.7-.07-3.41-.2-5.11l-.48-5.08c-.11-1.71-.48-3.37-.74-5.06s-.54-3.34-.87-5.05-.59-3.4-.87-5.11-.48-3.42-.63-5.14c-1.48-13.73-.94-27.69.52-41.34.69-6.83,1.59-13.6,1.82-20.25a42.86,42.86,0,0,0-.69-9.73c-.18-.77-.35-1.54-.58-2.29l-.36-1.11-.44-1.21q-.9-2.45-1.72-4.9c-1.13-3.27-2.11-6.58-3.07-9.89s-1.85-6.63-2.69-10c-1.68-6.67-3.19-13.38-4.41-20.15Z"></path><path fill="#c4cfe6" d="M340.45,732.32c-.73-4.51,11.64-12.22,23.57-13,1.28-.08,1.55,0,18,1.86,13.48,1.55,15,1.7,16.75,1.86,16.53,1.51,14.64,0,19.84,1.24,10.34,2.54,10.23,6.78,24.81,11.79,5.59,1.92,8.61,2.33,8.68,3.72.15,2.59-10,5.1-22.32,8.06-15.17,3.66-22.75,5.49-28.53,5-11-1-11.45-5.29-27.91-11.16C352.81,734.3,341.14,736.55,340.45,732.32Z"></path><path fill="#a4b5dd" d="M335.67,798.74a98.39,98.39,0,0,1-3.86-11c-.55-1.86-1.07-3.74-1.52-5.64s-.9-3.79-1.26-5.7-.72-3.84-1-5.78-.51-3.88-.7-5.84a63.25,63.25,0,0,1-.11-11.84A39.39,39.39,0,0,1,330,741.21a20.22,20.22,0,0,1,3.19-5.25,14.78,14.78,0,0,1,2.25-2.15,14.08,14.08,0,0,1,2.69-1.54,17.81,17.81,0,0,1,2.91-.88c.94-.22,1.88-.44,2.81-.68l5.67-1.33A114.23,114.23,0,0,1,361,727.22a46.12,46.12,0,0,1,12,0,63.79,63.79,0,0,1,11.57,2.88l2.78,1c.93.33,1.78.58,2.67.88s1.78.54,2.68.79,1.79.52,2.72.72c3.65.91,7.37,1.64,11.1,2.36,7.46,1.4,15,2.48,22.61,3.27,3.8.33,7.61.68,11.42.77a77.05,77.05,0,0,0,11.46-.34l.12.48a51,51,0,0,1-11.48,2.42l-2.92.29-2.93.17c-1.95.11-3.91.12-5.86.14-3.91,0-7.82-.17-11.71-.52s-7.78-.81-11.65-1.42a110.25,110.25,0,0,1-11.51-2.57c-.95-.25-1.89-.57-2.84-.87s-1.89-.58-2.83-.95-1.91-.72-2.79-1.07L383,734.56c-7.05-2.77-14.18-4.7-21.76-4.61a66.24,66.24,0,0,0-11.37,1.1c-1.9.28-3.77.74-5.65,1.14-.93.21-1.87.45-2.8.68a13.11,13.11,0,0,0-2.61.87,10.79,10.79,0,0,0-4,3.48,16.83,16.83,0,0,0-2.21,4.92,43.83,43.83,0,0,0-1.22,11c0,3.74.16,7.5.37,11.28.12,1.89.29,3.78.49,5.67s.38,3.79.62,5.68c.92,7.59,2.15,15.17,3.3,22.83Z"></path><path fill="#dde6f4" d="M326.3,713.17c-2.23-1.17,2.49-16.52,9.92-30.39,4.95-9.23,9.83-18.35,19.85-26.67,12.38-10.28,25.65-13.57,36-16.12,16.63-4.11,18.84-.88,30.39-5.58,16.78-6.84,23.1-18.16,26-16.13s-.47,16.64-9.92,25.43c-5.53,5.14-12.82,8.09-17.36,9.92-8.82,3.57-12.42,3.08-16.75,7.45-2.69,2.71-2.09,3.71-6.82,11.16-3.85,6.07-5.87,9.26-8.68,11.78-4.93,4.43-8.54,3.47-22.95,6.82-12,2.8-18,4.2-24.19,8.07C331.24,705.53,328,714.06,326.3,713.17Z"></path><path fill="#a4b5dd" d="M441.28,630.06a8.53,8.53,0,0,1-1.76,4.39c-.49.6-.93,1.27-1.47,1.83S437,637.4,436.42,638a48.21,48.21,0,0,1-7.43,5.5,91.67,91.67,0,0,1-8.07,4.42c-1.39.64-2.78,1.28-4.18,1.89s-2.8,1.2-4.22,1.75l-4.26,1.66c-1.43.53-2.88,1-4.32,1.48-2.88,1-5.76,2-8.69,2.73-5.82,1.77-11.77,3-17.69,4.25l.16,0c-1.74.52-3.58,1.21-5.34,1.92s-3.55,1.51-5.28,2.35-3.43,1.76-5.12,2.72-3.3,2-4.9,3.1a71.29,71.29,0,0,0-16.73,15.92,74.47,74.47,0,0,0-6.1,9.77A69.77,69.77,0,0,0,329.94,708c-.28.91-.6,1.8-.83,2.72l-.71,2.76c-.43,1.87-.8,3.76-1.21,5.64-.18.94-.42,1.87-.58,2.82l-.47,2.86c-.3,1.91-.66,3.8-.92,5.71-.46,3.85-1.05,7.66-1.38,11.53l-.6,5.78-.5,5.8-.25,2.89c-.07,1-.13,1.94-.22,2.91l-.47,5.8L321,776.81c-.95,15.53-1.62,31.11-2.32,46.74l-.5,0a391.24,391.24,0,0,1-1.93-46.94,297.29,297.29,0,0,1,4.15-46.93c.33-2,.76-3.88,1.14-5.82l.59-2.9c.19-1,.47-1.92.71-2.88.5-1.93,1-3.84,1.5-5.76l.94-2.86c.31-1,.72-1.88,1.07-2.82a73.75,73.75,0,0,1,12.44-20.29A102.33,102.33,0,0,1,356.1,670.3c1.57-1.2,3.19-2.33,4.82-3.43s3.29-2.18,5-3.2,3.42-2,5.18-2.93,3.53-1.78,5.47-2.58l.16,0c2.88-.85,5.75-1.74,8.65-2.53,1.44-.39,2.88-.81,4.31-1.25l4.31-1.26,4.32-1.24,4.28-1.33c1.42-.45,2.86-.86,4.27-1.35l4.24-1.44c2.85-.9,5.57-2.1,8.38-3.1,2.73-1.16,5.48-2.3,8.12-3.64.65-.34,1.34-.63,2-1l1.92-1.1c1.32-.68,2.48-1.56,3.73-2.36l1.72-1.37c.59-.44,1.06-1,1.6-1.48a8.53,8.53,0,0,0,2.23-3.59Z"></path><path fill="#899fca" d="M335.1,612.19a37.72,37.72,0,0,0-8.47,9.66c-.6.88-1.1,1.83-1.63,2.76s-1,1.88-1.48,2.83-.89,1.94-1.3,2.92l-.63,1.47-.55,1.5a79.28,79.28,0,0,0-3.38,12.34c-.75,4.15-1.43,8.62-2.38,12.92s-2.09,8.61-3.33,12.86-2.51,8.46-3.65,12.7A99.19,99.19,0,0,0,305.78,697c-.14,1.08-.27,2.17-.37,3.25a32.56,32.56,0,0,0-.19,3.26c0,1.08-.09,2.14,0,3.23l.14,3.26c.22,4.36.67,8.72,1.06,13.08l1.2,13.09c.83,8.72,1.87,17.44,2.67,26.17s1.58,17.48,2.3,26.23l1.1,13.13c.23,2.17.35,4.38.59,6.55l.32,3.28.41,3.26-.48.13-1-3.17-.85-3.21c-.56-2.15-1-4.31-1.5-6.47q-1.38-6.48-2.47-13c-.76-4.35-1.43-8.71-2-13.07s-1.18-8.74-1.67-13.11c-1-8.76-1.6-17.56-2.07-26.37a246.8,246.8,0,0,1-.28-26.52l.18-3.33c.07-1.1.23-2.23.33-3.35.07-.55.11-1.11.19-1.66l.27-1.64c.16-1.1.34-2.19.54-3.28.74-4.36,1.68-8.68,2.63-13l1.36-6.46c.42-2.15.82-4.31,1.17-6.47.71-4.33,1.3-8.67,1.92-13s1.16-8.6,2.15-13.07c.19-1.11.51-2.2.8-3.29s.55-2.19.9-3.27l1.13-3.2c.36-1.07.87-2.1,1.29-3.14l.68-1.56.78-1.51c.53-1,1-2,1.66-3a41.47,41.47,0,0,1,3.91-5.56,30.49,30.49,0,0,1,10.39-8.53Z"></path><path fill="#dde6f4" d="M269,696.43c5.13-2.13,3-18.73,1.86-27.91-1.69-13.24-4.18-15.26-7.45-32.25-1.33-6.93-2.12-13.92-3.72-27.91-2.3-20.2-2.14-23.67-3.1-31-4-30.87-18.76-60.08-24.18-58.91-2,.44-2.6,5.25-3.73,14.88-1.42,12.25,2.77,16.23.62,25.43-1.19,5.14-2.24,3.62-6.2,13-4.53,10.77-7.94,18.89-5.58,27.29,1.44,5.1,3.55,5.13,5.58,12.4,1.48,5.28,1.06,7.74,1.86,13,.63,4.12,1.67,7.8,5.58,17.36,6.26,15.28,9.38,22.92,13.65,29.77C249.43,680.09,262.89,698.94,269,696.43Z"></path><path fill="#a4b5dd" d="M232.6,518.33a64.41,64.41,0,0,1,4.07,9,87,87,0,0,1,2.91,9.47,94.28,94.28,0,0,1,1.95,9.74c.26,1.64.42,3.29.63,4.93s.25,3.31.38,5,.09,3.32.14,5,0,3.32-.08,5l-.43,9.77c-.11,3.24-.21,6.47-.26,9.69s0,6.44.16,9.64a186.19,186.19,0,0,0,1.9,19.3c.92,6.44,2.08,12.87,3.34,19.28.68,3.18,1.24,6.42,2.13,9.52.43,1.57.8,3.14,1.28,4.69s1.08,3.06,1.63,4.58c.29.76.53,1.53.85,2.28l1,2.24,2,4.45c1.45,2.92,2.83,5.85,4.32,8.76l4.45,8.74c.73,1.47,1.5,2.92,2.2,4.4l2.08,4.47c1.46,3,2.62,6,3.9,9.09l.94,2.29c.3.76.56,1.55.84,2.32l1.65,4.67c1.17,3.09,2.05,6.27,3,9.44l1.4,4.75c.41,1.6.77,3.21,1.16,4.81l1.13,4.82c.36,1.61.77,3.21,1,4.84L285.9,745l.39,2.44c.13.81.19,1.64.29,2.45l.55,4.91c.35,3.27.77,6.54,1,9.81.33,6.57.85,13.12.92,19.68v9.84c0,3.28.08,6.55-.14,9.83s-.33,6.54-.51,9.81-.36,6.53-.6,9.8l-.5,0c-.21-3.26-.36-6.53-.52-9.79s-.32-6.52-.43-9.78c-.31-6.51-.89-13-1.25-19.5-.13-3.25-.59-6.47-.88-9.71l-.92-9.69c-.14-1.62-.45-3.22-.64-4.82l-.64-4.82-.64-4.82c-.11-.8-.19-1.61-.33-2.41l-.44-2.38L279,736.27c-.24-1.61-.64-3.17-1-4.75l-1-4.73c-.34-1.58-.66-3.17-1-4.74l-1.26-4.67c-.84-3.12-1.61-6.26-2.67-9.31-3.83-12.34-8.89-24.27-14-36.3-1.32-3-2.54-6-3.81-9.07l-1.74-4.61-.89-2.3c-.29-.76-.52-1.56-.78-2.34-.5-1.57-1-3.13-1.53-4.69s-.83-3.18-1.25-4.77c-.86-3.19-1.53-6.38-2.25-9.57l-4.47-19.11a146,146,0,0,1-3.33-19.52,131.21,131.21,0,0,1-.17-19.82l.61-9.79c.07-1.6.22-3.2.26-4.8s.06-3.21,0-4.82l-.15-4.81c-.11-1.6-.17-3.21-.32-4.81s-.29-3.21-.53-4.8-.41-3.2-.69-4.79c-.53-3.19-1.18-6.36-2-9.5a84.51,84.51,0,0,0-2.85-9.3Z"></path><path fill="#dde6f4" d="M293.71,659.84c-3.51-.85-3.42-15.08-1.86-24.81a77.24,77.24,0,0,1,8.68-24.81c4-7.11,6-7.67,9.3-14.88,3.74-8.07,2.61-10.13,5.59-17.37,3.25-7.9,5.4-7.37,14.26-20.46,6.63-9.8,10.16-15,12.4-23,2.87-10.12,1.53-17.16,3.1-17.36,1.75-.23,5.67,8.12,5.59,17.36,0,5.08-1.27,6.91-6.21,21.71-3.47,10.4-5.21,15.68-5.58,19.22-.91,8.78,1.28,10.8.62,20.47-.24,3.57-.72,10.7-3.72,17.36C330.19,626,321,624.65,308.59,638.75,298.3,650.5,296.71,660.56,293.71,659.84Z"></path><path fill="#a4b5dd" d="M346.67,528.91a25.63,25.63,0,0,1-.43,9.29,76,76,0,0,1-2.39,8.94c-.93,2.94-2,5.8-3.21,8.65L338.83,560c-.62,1.4-1.31,2.77-2,4.16-1.29,2.79-2.73,5.48-4.13,8.21s-3,5.35-4.47,8-3.13,5.25-4.72,7.86l-4.7,7.71a168.71,168.71,0,0,0-15.3,32.77,173.38,173.38,0,0,0-4.82,17.53l-1,4.44-.78,4.48c-.55,3-.91,6-1.38,9-.76,6-1.33,12-1.78,18.06-.2,3-.42,6-.54,9-.07,1.54-.13,2.93-.06,4.35a32.64,32.64,0,0,0,.47,4.26c2,12.05,3.67,24.13,4.93,36.26s2.09,24.33,2.32,36.56-.09,24.52-2.14,36.58l-.49,0c.16-6.09.18-12.14-.15-18.2-.05-1.51-.11-3-.23-4.53l-.26-4.54c-.19-3-.47-6-.67-9.06-1-12.08-2.27-24.14-3.68-36.18s-2.74-24.11-4.3-36.14a38.52,38.52,0,0,1-.38-4.83,43.3,43.3,0,0,1,.22-4.76c.25-3.06.56-6.11,1-9.15.77-6.09,1.88-12.11,3.07-18.11s2.63-11.94,4.17-17.85,3.17-11.78,4.92-17.63c3.56-11.66,7.49-23.34,13.22-34.29,1.5-2.67,3-5.46,4.54-8l4.7-7.76c3.07-5.21,6.11-10.43,9-15.75s5.54-10.71,7.94-16.23q1.78-4.15,3.18-8.43l.64-2.16c.19-.72.35-1.45.53-2.18a18,18,0,0,0,.47-4.4Z"></path><path fill="#dde6f4" d="M360.05,603.61c18.52-12.61,20-13,24.19-17.37C394,576.07,392,572.11,401,562.68c11.69-12.28,28.66-19.79,32.25-16.13,1.87,1.91-1.16,5.57-7.44,24.19-4.78,14.17-4,15-6.82,19.23-4,6-9.72,9.62-21.09,16.74-10.44,6.54-13.42,6.83-18.6,12.4-3.09,3.31-3.24,4.5-8.69,11.17a129.09,129.09,0,0,1-11.16,12.4c-6.87,6.49-12.86,16-25.11,15C331.87,657.43,338.45,618.31,360.05,603.61Z"></path><path fill="#a4b5dd" d="M423.52,557.22a96.43,96.43,0,0,1-12.09,17.16c-2.34,2.62-4.73,5.21-7.32,7.6-1.26,1.24-2.61,2.37-3.92,3.55s-2.74,2.23-4.11,3.35L391.82,592l-2,1.52c-.68.49-1.35,1-2,1.56l-1.94,1.61c-.64.54-1.22,1.15-1.84,1.71-1.24,1.13-2.34,2.4-3.49,3.61q-3.26,3.83-6.18,8c-1.93,2.83-3.92,5.71-6,8.55a60.54,60.54,0,0,1-7.1,8,63.24,63.24,0,0,1-8.39,6.62,34.37,34.37,0,0,0-7.31,6.87,69,69,0,0,0-5.77,8.5,101.09,101.09,0,0,0-4.68,9.23c-1.36,3.18-2.71,6.36-3.81,9.64a172.75,172.75,0,0,0-5.62,19.95c-1.5,6.74-2.63,13.56-3.6,20.38s-1.7,13.68-2.16,20.55-.67,13.74-.56,20.61c.08,3.44.16,6.87.34,10.3s.46,6.83.7,10.32c.93,13.87,1.8,27.74,2.45,41.63S324,839,324.24,852.9l-.5,0c-1.86-13.8-3.44-27.61-4.86-41.44S316.21,783.84,315,770c-.55-6.91-1-14-.94-21s.4-14,1.07-21,1.6-13.94,2.91-20.82,3-13.69,4.91-20.41,4.2-13.33,6.68-19.86a158.63,158.63,0,0,1,8.66-19.07,82.43,82.43,0,0,1,5.57-9,38.38,38.38,0,0,1,7.33-7.87A62.71,62.71,0,0,0,365,616.17c1.95-2.79,3.74-5.75,5.74-8.64a78.74,78.74,0,0,1,6.55-8.46c1.26-1.29,2.46-2.63,3.82-3.81.67-.6,1.3-1.24,2-1.8l2.1-1.7a26.1,26.1,0,0,1,2.16-1.59l2.21-1.52,4.24-2.89A133.83,133.83,0,0,0,423.09,557Z"></path><path fill="#b2c2e3" d="M348.12,783.56l-1,8.67h0l-8.59,72.6a5.45,5.45,0,0,1-5.42,4.81H281.32a5.47,5.47,0,0,1-5.42-4.81l-2.79-23.61-6.83-57.67a5.45,5.45,0,0,1,5.42-6.09h71A5.45,5.45,0,0,1,348.12,783.56Z"></path><path fill="url(#a)" d="M342.73,825.46s-4.1,0-11.71-.4a53.81,53.81,0,0,1-50.56-47.43l0-.16H271.7a5.45,5.45,0,0,0-5.42,6.09l6.83,57.67,2.79,23.61a5.47,5.47,0,0,0,5.42,4.81h51.76a5.45,5.45,0,0,0,5.42-4.81l4.66-39.4A3,3,0,0,1,342.73,825.46Z" opacity=".47"></path><path fill="#fff" d="M316.85 777.47l-33.27 92.18h-2.26a5.47 5.47 0 01-5.42-4.81l-2.79-23.61 23-63.76zM348.12 783.56l-1 8.67h0l-27.93 77.41H290.37l33.27-92.18H342.7A5.45 5.45 0 01348.12 783.56z" opacity=".49"></path></g><g><rect width="339" height="651.97" x="574.37" y="217.69" fill="#8eb8e2" rx="25"></rect><rect width="339" height="651.97" x="544.05" y="217.69" fill="#3e5fab" rx="25"></rect><rect width="291.6" height="510.8" x="567.7" y="278.32" fill="#8eb8e2"></rect><path fill="url(#d)" d="M859.29,449.39c-36.61,44.31-84.55,87.42-154.8,105.41-56.61,14.5-99,5.34-136.8-3.43V789.12h291.6Z" opacity=".47"></path><path fill="#324e87" d="M663.81,217.69h99.36a0,0,0,0,1,0,0v12.46a15.54,15.54,0,0,1-15.54,15.54H679.36a15.54,15.54,0,0,1-15.54-15.54V217.69A0,0,0,0,1,663.81,217.69Z"></path><circle cx="799.37" cy="245.68" r="8.2" fill="#324e87"></circle><circle cx="713.49" cy="825.37" r="21.79" fill="none" stroke="#8eb8e2" stroke-miterlimit="10" stroke-width="5"></circle><path fill="#3e5fab" d="M778.57,392c0,42.09-30.54,66.41-68.21,66.41s-68.2-24.32-68.2-66.41,30.53-76.2,68.2-76.2S778.57,349.89,778.57,392Z"></path><path fill="#a8b9df" d="M721.71,387.48a20.44,20.44,0,0,0,6.67-15.25c0-11-8.44-20-18.86-20s-18.87,8.95-18.87,20a20.4,20.4,0,0,0,7.19,15.68,33.49,33.49,0,0,0-21,31.06v7h67v-7A33.49,33.49,0,0,0,721.71,387.48Z"></path><rect width="98.86" height="64.54" x="599.87" y="624.79" fill="#c4cfe6"></rect><rect width="98.86" height="64.54" x="737.37" y="624.79" fill="#c4cfe6"></rect><line x1="599.19" x2="836.24" y1="716.51" y2="716.51" fill="none" stroke="url(#b)" stroke-miterlimit="10" stroke-width="7" opacity=".47"></line><line x1="599.19" x2="836.24" y1="743.69" y2="743.69" fill="none" stroke="url(#e)" stroke-miterlimit="10" stroke-width="7" opacity=".47"></line><line x1="599.19" x2="836.24" y1="573.85" y2="573.85" fill="none" stroke="url(#f)" stroke-miterlimit="10" stroke-width="7" opacity=".47"></line><line x1="599.19" x2="836.24" y1="601.03" y2="601.03" fill="none" stroke="url(#g)" stroke-miterlimit="10" stroke-width="7" opacity=".47"></line><line x1="599.19" x2="836.24" y1="519.49" y2="519.49" fill="none" stroke="url(#h)" stroke-miterlimit="10" stroke-width="7" opacity=".47"></line><line x1="599.19" x2="836.24" y1="492.31" y2="492.31" fill="none" stroke="url(#i)" stroke-miterlimit="10" stroke-width="7" opacity=".47"></line><line x1="599.19" x2="836.24" y1="546.67" y2="546.67" fill="none" stroke="url(#j)" stroke-miterlimit="10" stroke-width="7" opacity=".47"></line><polygon fill="#fff" points="772.25 278.31 611.64 789.12 567.7 789.12 567.7 684.34 695.37 278.31 772.25 278.31" opacity=".25"></polygon><polygon fill="#fff" points="637.38 789.12 797.99 278.32 859.3 278.32 859.3 410.53 740.26 789.12 637.38 789.12" opacity=".25"></polygon><line x1="898.85" x2="898.85" y1="315.77" y2="385.2" fill="none" stroke="#324e87" stroke-miterlimit="10" stroke-width="5"></line></g><g><rect width="157.81" height="85.03" x="293.46" y="210.71" fill="url(#k)" opacity=".47"></rect><path fill="#3e5fab" d="M341.49,255.75c0,21.76,15.78,34.33,35.25,34.33S412,277.51,412,255.75s-15.79-39.39-35.26-39.39S341.49,234,341.49,255.75Z"></path><path fill="#fff" d="M370.88,253.43a10.57,10.57,0,0,1-3.45-7.88c0-5.71,4.36-10.33,9.75-10.33s9.75,4.62,9.75,10.33a10.52,10.52,0,0,1-3.71,8.1,17.32,17.32,0,0,1,10.84,16.06v3.64H359.42v-3.64A17.3,17.3,0,0,1,370.88,253.43Z"></path><line x1="427.3" x2="396.69" y1="274.63" y2="274.63" fill="none" stroke="#e7ebf6" stroke-miterlimit="10" stroke-width="8"></line><line x1="412" x2="412" y1="289.93" y2="259.33" fill="none" stroke="#e7ebf6" stroke-miterlimit="10" stroke-width="8"></line><polygon fill="#fff" points="414.83 210.71 390.15 295.73 346.37 295.73 371.05 210.71 414.83 210.71" opacity=".42"></polygon><polygon fill="#fff" points="441.64 210.71 416.96 295.73 397.06 295.73 421.74 210.71 441.64 210.71" opacity=".42"></polygon></g><g data-name="Tabs"><rect width="312.03" height="116.68" x="943.01" y="278.32" fill="url(#l)" opacity=".51"></rect><path fill="#3e5fab" d="M1036,341.65c0,25.22-18.3,39.8-40.87,39.8s-40.87-14.58-40.87-39.8S972.53,296,995.1,296,1036,316.44,1036,341.65Z"></path><path fill="#fff" d="M1001.9,339a12.26,12.26,0,0,0,4-9.13c0-6.62-5.06-12-11.31-12s-11.3,5.36-11.3,12a12.23,12.23,0,0,0,4.3,9.39A20.09,20.09,0,0,0,975,357.83v4.22h40.16v-4.22A20.07,20.07,0,0,0,1001.9,339Z"></path><line x1="1067.61" x2="1223.58" y1="322.78" y2="322.78" fill="none" stroke="url(#m)" stroke-miterlimit="10" stroke-width="7" opacity=".47"></line><line x1="1067.61" x2="1223.58" y1="357.17" y2="357.17" fill="none" stroke="url(#n)" stroke-miterlimit="10" stroke-width="7" opacity=".47"></line><polygon fill="#fff" points="1117.23 278.31 1075.88 395 1032.66 395 1074.01 278.31 1117.23 278.31" opacity=".42"></polygon><polygon fill="#fff" points="1210.42 278.31 1169.08 395 1095.75 395 1137.09 278.31 1210.42 278.31" opacity=".42"></polygon></g><g data-name="Robot\Leg\Front"><circle cx="549.93" cy="839.05" r="8.97" fill="#30302f"></circle><path fill="#30302f" d="M551.5,858.33h5.65v-3H551.5c-1,0-1.57-.5-1.58-.67l-2.61-38.44a.37.37,0,0,1,.1-.18,2.11,2.11,0,0,1,1.48-.5h9.46v-3h-9.46a5,5,0,0,0-3.67,1.45,3.28,3.28,0,0,0-.91,2.43l2.61,38.44C547.06,856.84,549,858.33,551.5,858.33Z"></path><polygon fill="#ee465e" points="553.46 838.02 583.87 837.26 561.5 714.65 558.36 578.81 508.64 547.43 550.58 713.41 553.46 838.02"></polygon><path fill="#4e4f50" d="M538.6,560h3.48a22.8,22.8,0,0,1,22.8,22.8v3.48a3,3,0,0,1-3,3H538.6a3,3,0,0,1-3-3V563a3,3,0,0,1,3-3Z" transform="rotate(-180 550.24 574.64)"></path><path fill="#79797a" d="M560.43,572.4h1.18a3.26,3.26,0,0,0,3.27-3.27V577a3.26,3.26,0,0,1-3.27,3.27h-1.18a24.83,24.83,0,0,1-24.83-24.83v-1.18a3.23,3.23,0,0,1,.5-1.71A24.83,24.83,0,0,0,560.43,572.4Z"></path><path fill="#c23e56" d="M553.47,837.26v32.39H625v-11a7.63,7.63,0,0,0-7.46-7.62c-10.43-.28-28.66-2.44-33.66-13.81h-30.4Z"></path><path fill="#4e4f50" d="M543.39,613.77c.64,16.24,1.87,32.42,3.3,48.57.67,8.08,1.54,16.14,2.32,24.21l2.65,24.17q2.77,24.16,6.27,48.23c2.31,16,4.83,32.08,8,48-.63-16.25-1.86-32.43-3.3-48.58s-3.08-32.28-5-48.38l-3-24.13c-1.1-8-2.1-16.08-3.31-24.1C549,645.75,546.5,629.72,543.39,613.77Z"></path><path fill="#30302f" d="M553.65,869.65a8.87,8.87,0,0,1,2.91-6,8.37,8.37,0,0,1,6-2.17,8.07,8.07,0,0,1,5.61,2.57,7.93,7.93,0,0,1,2.14,5.61h2.33a7.88,7.88,0,0,1,2.37-5.38,7.61,7.61,0,0,1,10.65.11,7.44,7.44,0,0,1,2.15,5.27h3a7.55,7.55,0,0,1,12.79-5.37,7.82,7.82,0,0,1,2.37,5.37h2.34a8,8,0,0,1,2.14-5.61,8.11,8.11,0,0,1,5.61-2.57,8.46,8.46,0,0,1,6,2.17,9,9,0,0,1,2.91,6,9,9,0,0,0-2.32-6.6,9.47,9.47,0,0,0-6.6-3,9.76,9.76,0,0,0-7,2.65,9.93,9.93,0,0,0-3.09,7h2.34a10,10,0,0,0-2.85-7.23,10.22,10.22,0,0,0-14.58-.11,10.44,10.44,0,0,0-3.07,7.34h3a10.42,10.42,0,0,0-3.08-7.34,10.24,10.24,0,0,0-14.57.11,10,10,0,0,0-2.85,7.23h2.33a9.92,9.92,0,0,0-3.08-7,9.78,9.78,0,0,0-7-2.65,9.47,9.47,0,0,0-6.6,3A8.93,8.93,0,0,0,553.65,869.65Z"></path><circle cx="390.98" cy="811.49" r="8.97" fill="#30302f"></circle><path fill="#30302f" d="M389.85,832.05l1.2-2.75L385.88,827c-.92-.4-1.24-1.08-1.18-1.25l13-36.25a.3.3,0,0,1,.17-.12,2,2,0,0,1,1.55.13l8.67,3.8,1.2-2.75-8.66-3.8a5,5,0,0,0-3.95-.14,3.23,3.23,0,0,0-1.8,1.86l-13,36.26c-.67,1.86.53,4,2.79,5Z"></path><polygon fill="#ee465e" points="394.62 811.97 422.79 823.48 451.52 702.21 503.18 576.53 470.23 527.83 442.01 696.68 394.62 811.97"></polygon><path fill="#4e4f50" d="M485.77,554.81h3.48a22.8,22.8,0,0,1,22.8,22.8v3.48a3,3,0,0,1-3,3H485.77a3,3,0,0,1-3-3V557.81a3,3,0,0,1,3-3Z" transform="rotate(-156.33 497.42 569.444)"></path><path fill="#79797a" d="M507.65,571.49l1.08.47a3.25,3.25,0,0,0,4.3-1.68l-3.15,7.19a3.27,3.27,0,0,1-4.3,1.68l-1.08-.48A24.84,24.84,0,0,1,491.72,546l.48-1.08a3.27,3.27,0,0,1,1.14-1.37A24.84,24.84,0,0,0,507.65,571.49Z"></path><path fill="#c23e56" d="M394.94,811.27l-13,29.67,65.5,28.71,4.4-10a7.63,7.63,0,0,0-3.77-10c-9.44-4.45-25.27-13.75-25.28-26.16h0Z"></path><path fill="#4e4f50" d="M475.43,602.53c-5.94,15.14-11.3,30.45-16.47,45.82-2.64,7.67-5.07,15.4-7.6,23.1l-7.28,23.2q-7.15,23.25-13.62,46.69c-4.32,15.63-8.45,31.32-12,47.19,5.94-15.14,11.31-30.44,16.48-45.81s10.14-30.81,14.87-46.31l7-23.3c2.22-7.8,4.54-15.56,6.65-23.4C467.74,634.09,471.87,618.4,475.43,602.53Z"></path><path fill="#30302f" d="M382.1,841a9,9,0,0,1,5.08-4.34,8.43,8.43,0,0,1,6.38.43,8.08,8.08,0,0,1,4.1,4.61,7.93,7.93,0,0,1-.29,6l2.13.93a7.89,7.89,0,0,1,4.34-4,7.52,7.52,0,0,1,9.56,10.06l2.74,1.2a7.46,7.46,0,0,1,4.09-4,7.61,7.61,0,0,1,9.79,4.18,7.89,7.89,0,0,1,0,5.87l2.15.94a7.93,7.93,0,0,1,4.2-4.28,8.09,8.09,0,0,1,6.17-.1,8.4,8.4,0,0,1,4.64,4.4,8.93,8.93,0,0,1,.25,6.67,8.91,8.91,0,0,0,.52-7,9.44,9.44,0,0,0-4.81-5.45,9.79,9.79,0,0,0-7.48-.38A10,10,0,0,0,430,862l2.15.94a10,10,0,0,0,.29-7.77,10.25,10.25,0,0,0-13.31-6,10.41,10.41,0,0,0-5.76,5.49l2.74,1.2a10.38,10.38,0,0,0,.13-7.95,10.23,10.23,0,0,0-13.39-5.75,10,10,0,0,0-5.51,5.48l2.13.93a9.9,9.9,0,0,0,0-7.65,9.76,9.76,0,0,0-5.35-5.23,9.41,9.41,0,0,0-7.26.14A9,9,0,0,0,382.1,841Z"></path><circle cx="447.53" cy="700.82" r="14.78" fill="#4e4f50"></circle><circle cx="447.53" cy="700.82" r="8.45" fill="#ee465e"></circle><circle cx="554.63" cy="714.99" r="14.78" fill="#4e4f50"></circle><circle cx="554.63" cy="714.99" r="8.45" fill="#ee465e"></circle><path fill="#30302f" d="M466.11,565a192.22,192.22,0,0,0,86,.75,58.88,58.88,0,0,1,1.74-17.94,59.54,59.54,0,0,1,12-23.23,2.17,2.17,0,0,0-1.68-3.56H453.87a2.17,2.17,0,0,0-1.78,3.42,80.63,80.63,0,0,1,11.28,24.12A78.91,78.91,0,0,1,466.11,565Z"></path><path fill="#ee465e" d="M466.11,565a192.22,192.22,0,0,0,86,.75,58.88,58.88,0,0,1,1.74-17.94,59.54,59.54,0,0,1,12-23.23,2.17,2.17,0,0,0-1.68-3.56H453.87a2.17,2.17,0,0,0-1.78,3.42,80.63,80.63,0,0,1,11.28,24.12A78.91,78.91,0,0,1,466.11,565Z"></path><path fill="#c23e56" d="M463.37,548.54c-.17-.64-.37-1.24-.56-1.86,7.65,4.05,16.27,4.3,34.2,3.46,16.36-.78,29.62-16.09,36.53-29.14h30.33c-.06,2.12-.14,4.23-.24,6.35a58.32,58.32,0,0,0-11.55,38.38,192.22,192.22,0,0,1-86-.75A78.91,78.91,0,0,0,463.37,548.54Z"></path><path fill="#545554" d="M492.22,546.77a29.26,29.26,0,0,1,34.51-1l2.36,1.62a25.08,25.08,0,0,0,24.26,2.41c-.19.85-.35,1.7-.5,2.52a27.21,27.21,0,0,1-25-3.13l-2.36-1.62a27.06,27.06,0,0,0-31.95.9A27.36,27.36,0,0,1,464,551c-.2-.82-.41-1.65-.65-2.49,0-.17-.1-.32-.14-.48a25.21,25.21,0,0,0,29-1.29Z"></path><path fill="#484748" d="M517.22 541.54a29.48 29.48 0 019.51 4.26l2.36 1.62a25.08 25.08 0 0024.26 2.41c-.19.85-.35 1.7-.5 2.52h0a27.21 27.21 0 01-25-3.13l-2.36-1.62A27.22 27.22 0 00515 543.28C515.74 542.72 516.49 542.14 517.22 541.54zM476.79 552a25.42 25.42 0 008.56-1.51c1.67 0 3.45-.06 5.35-.12A27.27 27.27 0 01464 551h0c-.2-.82-.41-1.65-.65-2.49 0-.17-.1-.32-.14-.48A25.31 25.31 0 00476.79 552z"></path><path fill="#ea5f7a" d="M531,523.18A178.14,178.14,0,0,0,506.45,520c-8.16-.55-16.31-.7-24.46-.59-2,0-4.07.06-6.11.14s-4.07.13-6.11.25-4.07.21-6.1.37l-3.06.22-1.52.13-.51,0a7.51,7.51,0,0,0-1.08.17,6.52,6.52,0,0,0-2.12.91,6.31,6.31,0,0,0-2.59,3.56,6.24,6.24,0,0,0,.33,4.32,5.51,5.51,0,0,0,.53.92l.13.19.06.08.12.14.49.57,1,1.12c1.27,1.49,2.46,2.92,3.56,4.49,2.23,3.11,4.15,6.8,6.49,10.37A41.12,41.12,0,0,0,464,534.69a36.8,36.8,0,0,0-2.47-6.14l-.73-1.43-.38-.69-.09-.18-.05-.08s0,0,0,0a2.49,2.49,0,0,1,.17.24A1.94,1.94,0,0,1,460,529a2.27,2.27,0,0,1-.71.36,3.22,3.22,0,0,1-.32.07c-.09,0,0,0,.07,0h.19l1.53.06,3.06.07c2,.05,4.08.06,6.12.06s4.09,0,6.13-.05,4.08-.1,6.12-.17c8.15-.3,16.31-.86,24.45-1.81A178.24,178.24,0,0,0,531,523.18Z"></path><path fill="#ee465e" d="M508.7,572.22a195.66,195.66,0,0,1-43.05-5.29l-1.44-.35-.09-1.48a77.67,77.67,0,0,0-13.68-39.55,4.18,4.18,0,0,1,3.43-6.55H564.14a4.17,4.17,0,0,1,3.21,6.84,56.54,56.54,0,0,0-13.27,39.78l.09,1.7-1.66.36a194.53,194.53,0,0,1-41.79,4.55Zm43.19-24.93a61.19,61.19,0,0,1,12.39-24,.13.13,0,0,0,0-.17.15.15,0,0,0-.16-.11H453.87a.15.15,0,0,0-.15.09.19.19,0,0,0,0,.2A81.71,81.71,0,0,1,468,563.37a190.18,190.18,0,0,0,82,.76A60.61,60.61,0,0,1,551.89,547.29Z"></path></g><g data-name="Robot\Head\Back"><rect width="20.14" height="25.88" x="499.79" y="377.95" fill="#474748"></rect><path fill="#ee465e" d="M535.59,390.54H484.12a2.42,2.42,0,0,1-2.4-2.77l11.4-77.1a2.41,2.41,0,0,1,2.39-2.07H524.2a2.43,2.43,0,0,1,2.4,2.07L538,387.77A2.42,2.42,0,0,1,535.59,390.54Z"></path><path fill="#d13f5b" d="M535.59,390.54a2.42,2.42,0,0,0,2.4-2.77l-2.38-16.09c-13.74-4.91-24.47-19.32-29.74-30.7-2.68-5.8-6.56-20.56-9.58-32.38h-.78a2.41,2.41,0,0,0-2.39,2.07l-11.4,77.1a2.42,2.42,0,0,0,2.4,2.77Z"></path><path fill="#4e4f50" d="M536.31,376.43a25.4,25.4,0,0,1-9.88-4.62,29.24,29.24,0,0,0-34.5-1l-2.36,1.61a25.07,25.07,0,0,1-6,3.06l-.35,2.41a27.43,27.43,0,0,0,7.62-3.67l2.36-1.62a27.08,27.08,0,0,1,31.94.9,27.56,27.56,0,0,0,11.55,5.19Z"></path></g><g data-name="Robot\Body\Back"><path fill="url(#o)" d="M369,663.08l80.95-21.4a5.07,5.07,0,0,1,6.2,3.59L470.22,698a5.07,5.07,0,0,1-3.59,6.2l-90.85,20.44a5.43,5.43,0,0,1-.68.13,4.91,4.91,0,0,1-5.24-5.69l-4.47-49.84A5.07,5.07,0,0,1,369,663.08Z" opacity=".51"></path><path fill="#c4cee5" d="M376.67,660.42l83.57-22.31a5.07,5.07,0,0,1,6.2,3.59L482,700a5.06,5.06,0,0,1-3.59,6.2l-27.79,7.42a5.09,5.09,0,0,1-4.56-1l-11.77-9.87a5,5,0,0,0-4.56-1L390.5,712.22a5.07,5.07,0,0,1-6.2-3.59l-11.21-42A5.06,5.06,0,0,1,376.67,660.42Z"></path><line x1="456.62" x2="469.2" y1="650.94" y2="694.97" fill="none" stroke="url(#c)" stroke-miterlimit="10" stroke-width="5" opacity=".47"></line><line x1="445.49" x2="458.06" y1="654.38" y2="698.41" fill="none" stroke="url(#p)" stroke-miterlimit="10" stroke-width="5" opacity=".47"></line><line x1="433.93" x2="446.5" y1="657.82" y2="701.85" fill="none" stroke="url(#q)" stroke-miterlimit="10" stroke-width="5" opacity=".47"></line><circle cx="395.43" cy="517.84" r="9.91" fill="#30302f"></circle><circle cx="390.55" cy="543.84" r="14.78" fill="#30302f"></circle><circle cx="395.4" cy="569.83" r="9.91" fill="#30302f"></circle><rect width="42.8" height="16.66" x="487.47" y="502.39" fill="#4e4f50"></rect><path fill="#f6be1d" d="M558.62,507.56l-7.56.93a347.25,347.25,0,0,1-84.38,0l-7.56-.93a4.34,4.34,0,0,1-3.77-3.72l-.86-6.33a347.08,347.08,0,0,1-1.86-76.64l.69-7.95a4.34,4.34,0,0,1,4-3.95l24.43-1.91a346.34,346.34,0,0,1,54.28,0L560.44,409a4.33,4.33,0,0,1,4,3.95l.69,7.95a347.08,347.08,0,0,1-1.86,76.64l-.86,6.33A4.34,4.34,0,0,1,558.62,507.56Z"></path><path fill="#ee9e23" d="M562.39,503.84l.86-6.33q1.49-11,2.26-21.95c-14,13.89-19.48,15.2-47.18,13.9-17.75-.84-31.87-18.8-38.17-32.41-4.54-9.82-12.52-45.35-13.94-48.78l-8.92.7a4.34,4.34,0,0,0-4,3.95l-.69,7.95a347.08,347.08,0,0,0,1.86,76.64l.86,6.33a4.34,4.34,0,0,0,3.77,3.72l7.56.93a347.25,347.25,0,0,0,84.38,0l7.56-.93A4.34,4.34,0,0,0,562.39,503.84Z"></path><circle cx="603.31" cy="461.62" r="9.91" fill="#30302f"></circle><circle cx="628.01" cy="470.7" r="14.78" fill="#30302f"></circle><circle cx="638.12" cy="448.62" r="9.91" fill="#30302f"></circle><polyline fill="none" stroke="#f6be1d" stroke-linejoin="round" stroke-width="16" points="522.71 417.9 634.15 481.49 651.19 375.1"></polyline><circle cx="630.77" cy="476.41" r="14.78" fill="#4e4f50"></circle><circle cx="630.77" cy="476.41" r="8.45" fill="#30302f"></circle><circle cx="602.41" cy="467.95" r="9.91" fill="#4e4f50"></circle><circle cx="602.41" cy="467.95" r="5.01" fill="#30302f"></circle><circle cx="642.23" cy="450.07" r="9.91" fill="#4e4f50"></circle><circle cx="642.23" cy="450.07" r="5.01" fill="#30302f"></circle><path fill="#ee9e23" d="M683.52,377.68l-6.4-5.85A15.64,15.64,0,1,1,654,350.73l-6.4-5.85a24.31,24.31,0,0,0,35.88,32.8Z"></path><circle cx="651.19" cy="377.58" r="9.91" fill="#4e4f50"></circle><circle cx="651.19" cy="377.58" r="5.01" fill="#ee9e23"></circle><path fill="none" stroke="#f8e782" stroke-miterlimit="10" d="M472.45 448.63a5.2 5.2 0 005.2-5.21v-36L457.3 409a4.34 4.34 0 00-4 3.95l-.69 7.95q-1.2 13.86-1.28 27.76zM560.57 491.33a5.2 5.2 0 005.2-5.21V450.07l-20.36 1.6a4.35 4.35 0 00-4 3.95l-.69 7.95q-1.2 13.86-1.27 27.76z"></path><path fill="#ee9e23" d="M536.7 407.11v26.81a4.34 4.34 0 004.34 4.33h12.79a4.34 4.34 0 004.34-4.33V408.79zM534.8 487a4.33 4.33 0 00-4.34 4.33v19.06q10.32-.64 20.6-1.9l7.56-.93a4.34 4.34 0 003.77-3.72l.86-6.33c.47-3.5.88-7 1.25-10.51z"></path><path fill="#e77b26" d="M550.45 487c-5.1 2.19-10.93 2.89-19.71 2.84a4.38 4.38 0 00-.28 1.49v19.06q10.24-.64 20.43-1.88l.17 0 7.56-.93a4.34 4.34 0 003-1.74 4.28 4.28 0 00.8-2l.86-6.33c.47-3.5.88-7 1.25-10.51zM467.38 469.83H451.87q.76 13.88 2.62 27.68l.86 6.33a4.34 4.34 0 003.77 3.72l7.56.93c2.4.29 4.8.53 7.2.77V476.33A6.5 6.5 0 00467.38 469.83z"></path><path fill="#4e4f50" d="M531.94,406.78a14.31,14.31,0,0,0-14-11.22H501.59a14.3,14.3,0,0,0-13.93,11.09A344.35,344.35,0,0,1,531.94,406.78Z"></path><path fill="#ee9e23" d="M451.34 463.58l-9.11-12.1c-13-25-5.37-29.55 7.95-36.84l3.14-1.72zM566.1 463.58l9.1-12.1c13-25 5.38-29.55-8-36.84l-3.13-1.72z"></path><path fill="#e77b26" d="M508.87,513.23a348.25,348.25,0,0,1-42.45-2.59l-7.56-.92a6.5,6.5,0,0,1-5.65-5.58l-.87-6.34a350.2,350.2,0,0,1-1.87-77.12l.69-7.95a6.48,6.48,0,0,1,6-5.92l24.43-1.92a350.69,350.69,0,0,1,54.62,0l24.43,1.92a6.47,6.47,0,0,1,6,5.92l.69,7.95a350.2,350.2,0,0,1-1.87,77.12l-.86,6.34a6.53,6.53,0,0,1-5.66,5.58l-7.56.92A348.25,348.25,0,0,1,508.87,513.23Zm0-105.07c-9,0-18,.35-27,1.06l-24.43,1.91a2.17,2.17,0,0,0-2,2l-.69,7.95a345.08,345.08,0,0,0,1.85,76.15l.86,6.34a2.17,2.17,0,0,0,1.89,1.86l7.56.93a344.83,344.83,0,0,0,83.84,0l7.57-.93a2.16,2.16,0,0,0,1.88-1.86l.86-6.34A345.08,345.08,0,0,0,563,421.06l-.69-7.95a2.17,2.17,0,0,0-2-2l-24.43-1.91C526.89,408.51,517.88,408.16,508.87,408.16Z"></path><path fill="#f6be1d" d="M440.21,447.41a54.88,54.88,0,0,1-4.12-11.29h0c-.93.78-24.55,21.49-38.83,56.46-13.14,32.18-21.85,84.62,11.29,151.73l9.72-4.8c-25.08-50.78-28.84-98.67-11.17-142.35C418.47,469,435.56,451.77,440.21,447.41Z"></path><circle cx="384.51" cy="543.84" r="14.78" fill="#4e4f50"></circle><circle cx="384.51" cy="543.84" r="8.45" fill="#30302f"></circle><circle cx="390.55" cy="517.84" r="9.91" fill="#4e4f50"></circle><circle cx="390.55" cy="517.84" r="5.01" fill="#30302f"></circle><circle cx="390.52" cy="569.83" r="9.91" fill="#4e4f50"></circle><circle cx="390.52" cy="569.83" r="5.01" fill="#30302f"></circle><path fill="#ee9e23" d="M400.31,673.46a24.31,24.31,0,1,1,43.81-21.07l-7.81,3.75a15.64,15.64,0,0,0-28.18,13.56Z"></path><circle cx="413.79" cy="642.95" r="9.91" fill="#4e4f50"></circle><circle cx="413.79" cy="642.95" r="5.01" fill="#ee9e23"></circle><circle cx="469.3" cy="474.64" r="1.87" fill="#020202"></circle><circle cx="541.34" cy="432.88" r="1.87" fill="#020202"></circle><circle cx="554.49" cy="432.88" r="1.87" fill="#020202"></circle><circle cx="554.49" cy="414.79" r="1.87" fill="#020202"></circle><circle cx="541.34" cy="412.92" r="1.87" fill="#020202"></circle><circle cx="534.83" cy="491.42" r="1.87" fill="#020202"></circle><circle cx="558.17" cy="491.33" r="1.87" fill="#020202"></circle><circle cx="457.69" cy="474.64" r="1.87" fill="#020202"></circle><circle cx="470.18" cy="503.27" r="1.87" fill="#020202"></circle><circle cx="534.83" cy="504.26" r="1.87" fill="#020202"></circle><polygon fill="#c4cee5" points="396.18 655.21 423.38 647.95 413.19 665.7 409.78 670.68 403.89 674.04 397.29 673.46 396.18 655.21"></polygon></g><g><line x1="1007.47" x2="1007.47" y1="472.55" y2="593.7" fill="none" stroke="#3e5fab" stroke-miterlimit="10" stroke-width="3"></line><rect width="109.59" height="77.1" x="952.67" y="419.82" fill="#f9bf1f" rx="4.59"></rect><circle cx="1007.47" cy="583.09" r="31.39" fill="#3e5fab"></circle><circle cx="1007.47" cy="583.09" r="31.39" fill="#3e5fab"></circle><circle cx="1007.47" cy="524.03" r="19" fill="#3e5fab"></circle><path fill="#fff" d="M994.29,419.82l-21.91,77.1H957.26a4.59,4.59,0,0,1-4.59-4.59v-2.55l19.89-70Z" opacity=".25"></path><polygon fill="#fff" points="1039.93 419.82 1018.02 496.92 981.67 496.92 1003.61 419.82 1039.93 419.82" opacity=".25"></polygon><path fill="#8eb8e2" d="M1013.61 506.07a19 19 0 10-6.14 37c.67 0 1.33 0 2-.1-5.37-4.49-12.52-7.67-12.52-16.12C996.93 515.8 1009.08 513.74 1013.61 506.07zM976.08 583.09a31.39 31.39 0 0031.39 31.39 31.76 31.76 0 006.44-.66 12.19 12.19 0 001.38-5.73c0-13.55-18.36-13.55-18.36-27.1s18.36-13.54 18.36-27.09c0-.42-.07-.8-.1-1.2a31.27 31.27 0 00-39.11 30.39z"></path></g></svg>